<?xml version="1.0" encoding="utf-8"?>
<!-- Generator: Adobe Illustrator 17.0.0, SVG Export Plug-In . SVG Version: 6.00 Build 0)  -->
<!DOCTYPE svg PUBLIC "-//W3C//DTD SVG 1.1//EN" "http://www.w3.org/Graphics/SVG/1.1/DTD/svg11.dtd">
<svg version="1.1" id="Capa_1" xmlns="http://www.w3.org/2000/svg" xmlns:xlink="http://www.w3.org/1999/xlink" x="0px" y="0px"
	 width="520px" height="150px" viewBox="0 0 520 150" enable-background="new 0 0 520 150" xml:space="preserve">
<g>
	<path fill="#FFFFFF" d="M157.302,58c-0.487,0-0.973,1.065-1.46,2.525c0.365,0.973,0.73,1.628,1.095,1.628
		c0.608,0,1.217-1.347,1.825-3.537L158.032,58H157.302z"/>
	<path fill="#FFFFFF" d="M157.302,66c-0.973,1-1.46,1.569-1.46,2.541c0.365,0.973,0.73,1.635,1.095,1.635
		c0.669,0,1.278-1.358,1.825-3.548L158.032,66H157.302z"/>
	<path fill="#FFFFFF" d="M155.842,77.652l1.095,0.73c0.669,0,1.278-1.095,1.825-3.285c-0.487-0.242-0.852-0.365-1.095-0.365
		C156.45,74.975,155.842,75.95,155.842,77.652z"/>
	<path fill="#FFFFFF" d="M157.302,83c-0.365,0-0.302,0.493-1.302,1.223v1.095c0,0.488,0.511,0.682,0.937,0.682h0.73
		c0-1,0.243-1.074,0.73-1.865c-0.243-0.487-0.365-1.135-0.365-1.135H157.302z"/>
	<path fill="#FFFFFF" d="M253.851,37.499c0-0.487-0.243-0.73-0.73-0.73c-0.487,0.061-0.73,0.305-0.73,0.73
		c0.243,0.488,0.365,0.853,0.365,1.095h0.365c0.487,0,0.73-0.242,0.73-0.73V37.499z"/>
	<path fill="#FFFFFF" d="M253,30.929v-0.365c0-0.365-0.244-0.852-1.217-1.46c-1.46,0-2.069,0.596-2.069,1.813L251.296,32h1.095
		C252.756,32,253,31.659,253,30.929z"/>
	<path fill="#FFFFFF" d="M241.075,142.262c0,0.365,0.489,0.73,1.462,1.095c0.973-0.365,1.462-0.73,1.462-1.095v-1.095
		c0,0-0.611-0.122-1.097-0.365C241.808,141.29,241.197,141.775,241.075,142.262z"/>
	<path fill="#FFFFFF" d="M179.203,16.328c-4.015-4.622-7.422-6.935-10.221-6.935c0-1.337-5.232-2.067-15.696-2.19
		c-15.088,0-22.632,0.73-22.632,2.19c-3.529,0-7.909,3.285-13.141,9.856c-1.582,2.678-2.92,5.84-4.015,9.491
		c-0.852,0-1.46,5.233-1.825,15.696l0.73,13.506c-0.243,1.703-0.365,3.164-0.365,4.38l0.365,12.411l-0.567,2.555
		c0.243,1.521,0.163,3.226,0.163,5.11v1.46c0,2.373-0.122,3.591-0.365,3.65c0.243,2.068,0.365,3.773,0.365,5.11V111.6
		c0,2.496,1.297,7.118,3.487,13.871c2.433,4.259,5.698,7.165,9.592,9.232c7.057,1.703,11.295,2.297,12.512,2.297h22.267
		c4.989,0,10.342-1.809,16.061-5.947c5.354-5.962,8.031-11.429,8.031-16.662c1.339,0,2.086-6.263,2.208-18.917
		c0-0.487,0.843-7.113,1.843-20.012V56.116c-2-15.453-3.303-26.769-5.493-33.947C182.324,22.168,181.211,20.221,179.203,16.328z
		 M163,56.481v47.818c-1,6.57-3.457,9.856-6.682,9.856c0,0.488-0.847,0.853-2.793,1.095l-3.587-0.365l-3.619,0.365
		c-6.327-1.095-9.675-3.407-9.675-6.935c-0.487,0-0.644-16.548-1.644-49.644v-9.856c0-2.432,0.078-5.317-0.165-8.725
		c0-6.082,2.633-9.09,7.501-9.09h2.555c2.312,0,4.624-0.157,6.935-0.401c7.544,0,11.316,3.146,11.316,9.473
		c0,2.861,0.122,7.352,0.365,13.497c0,0.243-0.375,0.361-0.619,0.361L163,56.481z"/>
	<path fill="#FFFFFF" d="M255.648,43.535L254.946,43h-0.365c-0.487,0-0.73,0.475-0.73,0.9c1.582,3.894,3.257,5.925,5.082,5.925
		c0.487-0.242,1.067-0.28,1.067-0.28v-1.46C257,47.843,255.648,46.213,255.648,43.535z"/>
	<path fill="#FFFFFF" d="M244,28.009v0.365c0,0.488,0.665,0.626,1.091,0.626H247v-0.991c-1,0-1.013-0.122-1.5-0.365
		C245.013,27.887,245,28.009,244,28.009z"/>
	<path fill="#FFFFFF" d="M148.176,38.229c0.548,0,1.278-0.365,2.19-1.095c-0.243-0.972-0.973-1.46-2.19-1.46
		c-0.973,0-1.703,0.488-2.19,1.46C146.229,37.864,146.959,38.229,148.176,38.229z"/>
	<path fill="#FFFFFF" d="M151,82.762v-9.491c0-19.468-0.378-29.372-1.594-29.372l-0.865-0.9h-5.475
		c-1.703,0-2.066,1.193-2.066,2.895v17.156c0,8.761-0.123,18.739,0.12,29.932c-0.243,1.766-0.487,3.751-0.487,6.366
		c0.669,6.57,2.129,9.651,4.623,9.651h0.73c3.103,0,5.05-3.081,5.84-9.651c-0.243-3.892-0.717-5.86-0.961-6.103
		C151.109,88.926,151,85.5,151,82.762z"/>
	<path fill="#FFFFFF" d="M142.336,36.769l-0.73-0.365h-0.73v1.095h0.73C142.092,37.499,142.336,37.257,142.336,36.769z"/>
	<path fill="#FFFFFF" d="M156.937,100c-0.243,0-0.608,0.447-1.095,1.419c0.365,0.973,0.73,1.44,1.095,1.44
		c0.547,0,0.913-0.577,1.095-1.795c-0.243-0.487-0.365-1.065-0.365-1.065H156.937z"/>
	<path fill="#FFFFFF" d="M160.952,141.532c-0.487,0.243-0.852,0.365-1.095,0.365v1.095h1.825v-0.73
		C161.682,141.775,161.439,141.532,160.952,141.532z"/>
	<path fill="#FFFFFF" d="M156.207,36h-0.73c-1.703,0-2.555,0.932-2.555,2.392c0.548,1.46,1.399,2.291,2.555,2.291
		c0.973-2.067,1.46-3.558,1.46-4.167L156.207,36z"/>
	<path fill="#FFFFFF" d="M155.842,44l0.365,2h0.73c0.547,0,0.913-0.782,1.095-2c-0.487-0.79-0.73-1-0.73-2h-1.095L155.842,44z"/>
	<path fill="#FFFFFF" d="M155.842,108.679l0.73,0.365c0.487,0,0.73-0.242,0.73-0.73l-0.73-0.365
		C156.085,108.01,155.842,108.255,155.842,108.679z"/>
	<path fill="#FFFFFF" d="M156.937,51c-0.73,0-1.095,0.831-1.095,2.048c0.243,0.488,0.365,0.952,0.365,0.952h0.73
		c0.73,0,1.063-0.682,1.063-1.9v-0.365c0-0.487-0.212-0.735-0.698-0.735H156.937z"/>
	<path fill="#FFFFFF" d="M204.208,124l0.792-1.45v-0.73c-1-0.607-1.135-0.972-1.135-1.095c-0.973,0.243-1.865,0.973-1.865,2.19
		v0.365c0,0.365,0.748,0.72,1.478,0.72H204.208z"/>
	<path fill="#FFFFFF" d="M226.96,78.382l-1.217,0.73c0.426,1.46,2.258,2.19,4.258,2.19v-0.365
		C230,79.235,228.846,78.382,226.96,78.382z"/>
	<path fill="#FFFFFF" d="M239,86.778v0.73c0,0.548,0.331,0.913,1.548,1.095c0.487-0.607,0.452-0.972,0.452-1.095v-0.365l-0.817-1.46
		C239.209,86.048,239,86.413,239,86.778z"/>
	<path fill="#FFFFFF" d="M234.14,82H232v0.762c0,1.46,1.939,2.19,3.278,2.19c0.487-0.607,0.722-0.972,0.722-1.095v-0.365
		C236,83.127,235.113,82,234.14,82z"/>
	<path fill="#FFFFFF" d="M203.478,108h-1.095c-0.365,0-0.383,0.802-1.383,1.774v0.73c0,0.488,0.265,0.573,0.691,0.573
		C202.908,110.408,203.478,109,203.478,108z"/>
	<path fill="#FFFFFF" d="M245.456,89H244v1.063c0,2.19,1.64,2.936,4.013,2.936C247.466,91.357,246.612,90,245.456,89z"/>
	<path fill="#FFFFFF" d="M203.478,115.98c0-0.487-0.243-0.73-0.73-0.73c-0.365,0-0.852,0.488-1.46,1.46l0.365,0.73
		C202.748,116.953,203.356,116.468,203.478,115.98z"/>
	<path fill="#FFFFFF" d="M222.459,140c-0.487,0-0.459,1.107-0.459,1.532v0.365c0,0.365,0.445,0.73,1.175,1.095
		c3.164-0.122,4.825-0.487,4.825-1.095v-0.73L225.744,140H222.459z"/>
	<path fill="#FFFFFF" d="M233.41,141h-0.73c-0.487,0-0.73,0.075-0.73,0.5c0.061,0.488,0.304,0.5,0.73,0.5H234v-0.103
		C234,141.41,233.896,141,233.41,141z"/>
	<path fill="#FFFFFF" d="M212.929,137.516c-0.304-0.79-2.231-3.19-5.821-6.536c0-2.432-0.345-3.981-1.075-3.981h-0.365
		c-1.46,0-2.668,1.391-2.668,2.851v0.73l3.889,2.92c0.243,0.426,0.485,0.913,0.485,1.46c0,0.243-0.062,0.365-0.305,0.365
		c0,1.766,1.733,2.738,5.14,2.92c1.339,2.678,2.774,4.015,4.356,4.015c0.973-1.095,1.436-1.702,1.436-1.825v-1.095
		C218,138.976,216.336,138.369,212.929,137.516z"/>
	<path fill="#FFFFFF" d="M203.113,42c0.973,0,1.46-1.074,1.46-2.048c-0.243-0.487-0.365-0.952-0.365-0.952h-0.73
		c-0.608,0-1.217,0.831-1.825,2.778l0.73,0.222H203.113z"/>
	<rect x="265.532" y="48.815" fill="#FFFFFF" width="1.825" height="0.73"/>
	<path fill="#FFFFFF" d="M204.573,48.63c-0.365-0.972-0.556-1.368-0.921-1.368c-0.304,0-0.651,0.701-1.651,1.918v1.46
		c0,0.488-0.043,0.36,0.383,0.36h0.365C203.478,51,204.086,50.151,204.573,48.63z"/>
	<path fill="#FFFFFF" d="M203.113,34.368h0.365c0.487,0,0.531-0.031,0.531-0.519v-1.481h-0.531c-0.365,0-0.469,0.386-1.469,1.116
		v0.365C202.009,34.337,202.687,34.368,203.113,34.368z"/>
	<path fill="#FFFFFF" d="M203.843,27.278l0.365-0.73v-1.095h-0.365c-0.487,0.061-0.73,0.305-0.73,0.73v0.365
		C203.173,27.036,203.417,27.278,203.843,27.278z"/>
	<path fill="#FFFFFF" d="M211.817,65.606C211.331,65.85,211,65.971,211,65.971v1.095c0,0.365,0.143-0.066,0.873,0.934H213v-0.934
		C213,66.824,212.791,66.336,211.817,65.606z"/>
	<path fill="#FFFFFF" d="M219.762,72.548c-0.182-0.852-0.77-1.548-2.048-2.548H216v1.812c0,0.853,1.465,1.499,4.142,1.864
		c0.487,2.19,1.709,3.324,3.412,3.324H224v-0.808C224,75.644,222.682,74.191,219.762,72.548z"/>
	<path fill="#FFFFFF" d="M204.208,55h-0.365c-0.487,0-0.843,0.326-0.843,0.751v1.095c0,1.46,0.66,2.154,1.208,2.154h0.73
		l0.365-1.818C205.303,55.905,204.938,55,204.208,55z"/>
	<path fill="#FFFFFF" d="M206.033,60H205v1.956l1.5,1.46c0.973-0.365,1.5-0.73,1.5-1.095v-0.73C208,60.861,207.25,60,206.033,60z"/>
	<path fill="#FFFFFF" d="M156.937,91c-0.547,0-0.912,0.648-1.095,1.865c0.243,0.488,0.365,0.135,0.365,1.135h0.73
		c0.547,0,0.913-0.647,1.095-1.865c-0.243-0.487-0.365-1.135-0.365-1.135H156.937z"/>
	<path fill="#FFFFFF" d="M10,80.207v2.555C10,83.25,10.135,83,10.561,83h0.73C12.751,82,13,81.363,13,79.477v-1.825
		C12,77.652,11,78.505,10,80.207z"/>
	<path fill="#FFFFFF" d="M10.926,74c1.703-1,2.555-2.858,2.555-4.744c-0.243-0.972-0.963-1.277-1.693-1.277
		c-1.521,0-1.788,2.008-2.788,5.658v0.365C10,74.49,9.77,74,10.196,74H10.926z"/>
	<path fill="#FFFFFF" d="M11.656,92.618c1.46-2.494,2.19-4.075,2.19-4.745c0-0.972-0.487-1.582-1.46-1.825
		c-1.703,0.548-2.555,2.008-2.555,4.38C10.196,91.401,10.805,92.131,11.656,92.618z"/>
	<path fill="#FFFFFF" d="M10.196,65h0.73C11.656,65,12,63.294,13,60.131V59h-0.249C10.561,60,9,62.138,9,63.416v0.73
		C10,64.634,9.77,65,10.196,65z"/>
	<path fill="#FFFFFF" d="M22,123.28l-5-5.475v-2.555c0-2.432-0.664-3.65-1.942-3.65c-1.217,0.365-1.701,1.218-1.701,2.555
		c0,1.278,1.157,2.76,3.347,4.645c0.182,4.868,0.975,7.2,2.252,7.2h0.365c0.365,0,0.678-0.529,2.678-1.99V123.28z"/>
	<path fill="#FFFFFF" d="M10.561,56h0.365c2.19-2,3.285-3.135,3.285-4.048c0-0.365-0.243-0.952-0.73-2.952h-0.73
		c-2.19,2-3.285,3.683-3.285,6.238C9.466,55.603,9.831,56,10.561,56z"/>
	<path fill="#FFFFFF" d="M28.448,133.501c-0.974,1.095-1.46,1.398-1.46,1.519c0,1.401,0.852,1.98,2.555,2.98h0.73
		c1.46,0,2.19-0.301,2.19-1.519C31.064,134.29,29.725,133.501,28.448,133.501z"/>
	<path fill="#FFFFFF" d="M14.212,109c1.217-1,1.825-1.857,1.825-3.683c0-1.278-0.73-2.317-2.19-3.317h-1.095
		c0,1-0.487,2.222-1.46,3.683c0,1.278,0.73,2.317,2.19,3.317H14.212z"/>
	<path fill="#FFFFFF" d="M12.021,101C13.481,98,14,96.816,14,96.268v-1.095c0-0.304-0.601-0.913-1.818-1.825
		c-0.426,0-1.182,1.703-2.182,5.11v1.095c0,0.365,0.683,0.446,1.656,1.446H12.021z"/>
	<path fill="#FFFFFF" d="M152.96,141.532c-1.156,0-1.96,0.853-3.96,2.555v0.365c0,0.488,0.249,0.73,0.675,0.73
		c1.764,0,3.325-0.73,4.325-2.19v-0.365C154,142.262,153.69,141.897,152.96,141.532z"/>
	<path fill="#FFFFFF" d="M57.65,30.368h-0.641v0.926c0,0.488-0.15,1.074,0.275,1.074h1.725v-0.709
		C58.009,30.687,58.015,30.368,57.65,30.368z"/>
	<path fill="#FFFFFF" d="M66.775,109c0.548,0,0.913-0.402,1.095-1.62l-0.73-0.263c-0.487,0.123-0.973,0.577-1.46,1.672L66.41,109
		H66.775z"/>
	<path fill="#FFFFFF" d="M67.87,102.109v-1.095h-1.095c0,0.123-0.122,0.608-0.365,1.46l0.73,0.365
		C67.627,102.839,67.87,102.597,67.87,102.109z"/>
	<path fill="#FFFFFF" d="M63,34.579v-1.46C63,32.632,62.517,32,62.03,32h-2.92c0.426,2,0.913,4,1.46,4h0.73
		C61.665,36,62,35.552,63,34.579z"/>
	<path fill="#FFFFFF" d="M71.886,48h-1.825l-0.73,0.408c0.243,0.973,1.166,1.481,2.382,1.481C72.199,49.647,72,49.545,73,49.545
		v-0.73C73,48.328,72.372,48,71.886,48z"/>
	<path fill="#FFFFFF" d="M11.291,47h0.365C13.36,45,14,43.828,14,42.61v-1.095C14,41.028,13.968,40,13.481,40h-0.365
		c-1.947,2-2.92,3.743-2.92,4.96C10.379,46.178,10.744,47,11.291,47z"/>
	<path fill="#FFFFFF" d="M16,32.754V31h-1.058C13.238,32,12,33.849,12,36.039V36h1.481C14.942,35,16,34.214,16,32.754z"/>
	<path fill="#FFFFFF" d="M64.95,45h-0.365c-0.365,0-0.73,0.087-1.095,0.817c0,0.365,0.487,1.183,1.46,1.183h0.73
		c0.487,0,0.32,0.478,0.32-0.01v-0.365C66,46.26,65.924,45,64.95,45z"/>
	<path fill="#FFFFFF" d="M62.76,39h-0.365c-0.73,0-1.095,1.136-1.095,2.352l0.73,1.541c0.669-0.06,1.278-0.791,1.825-1.947
		C63.551,39.73,63.186,39,62.76,39z"/>
	<path fill="#FFFFFF" d="M22.972,127.296c-1.46,0.488-2.19,0.973-2.19,1.46c0,1.703,1.095,3.164,3.285,4.38
		c1.582-0.607,2.433-1.217,2.555-1.825C25.406,128.999,24.189,127.661,22.972,127.296z"/>
	<path fill="#FFFFFF" d="M37.938,138h-0.73C35.87,138,35,139.22,34,140.437v0.365c1,1.218,2.517,1.825,5.619,1.825l1.167-1.766
		C40.239,139.948,39.338,139,37.938,138z"/>
	<path fill="#FFFFFF" d="M106.198,109c1.217-3,1.802-3.91,1.802-4.336v-2.555c0-0.487-0.418-0.73-0.905-0.73
		c-1.947,0.973-3.095,2.313-3.095,4.015v2.555c0,0.365,0.738,0.051,1.468,1.051H106.198z"/>
	<path fill="#FFFFFF" d="M105.456,98.824c1.703-1.643,2.544-3.103,2.544-4.38v-1.825c0-0.487-0.353-0.73-1.084-0.73
		c-1.764,0-2.738,1.825-2.92,5.475C103.996,97.729,104.483,98.217,105.456,98.824z"/>
	<path fill="#FFFFFF" d="M104.738,55h0.365c0.974,0,1.897-1.014,1.897-2.9v-4.015c0-0.487-0.68-1.085-1.167-1.085h-0.365
		c-1.217,0-1.947,1.81-2.19,5.46C103.643,54.164,104.13,55,104.738,55z"/>
	<path fill="#FFFFFF" d="M143.796,142c-1.764,0-2.796,0.262-2.796,0.992v1.095c0,0.488,0.18-0.087,0.606-0.087h1.46
		c1.217,0,1.825-1.122,1.825-2.095l-0.73,0.095H143.796z"/>
	<path fill="#FFFFFF" d="M114.742,135.326c0-2.494-1.656-5.049-4.819-7.666c0-4.38-1.01-6.57-2.957-6.57
		c0,0.671-0.262,2.008-0.748,4.015c0,0.608,1.086,2.19,3.276,4.745c0,3.65,1.09,5.475,3.281,5.475
		c1.034,0.305,2.127,1.73,3.283,4.345l1.823,0.329h0.73c0.365,0,0.391-0.293,1.391-1.024v-1.46
		C120,136.786,118.149,136.056,114.742,135.326z"/>
	<path fill="#FFFFFF" d="M106.928,36.445L106.198,36h-0.73c-0.73,1-1.468,1.864-1.468,3.689V42h1.468
		C106.259,42,106.746,40.095,106.928,36.445z"/>
	<path fill="#FFFFFF" d="M133.575,141c-1.46,0-2.575,1.02-2.575,1.627v0.365c0,0.365,0.614,0.73,1.588,1.095
		c2.19-0.548,3.412-1.155,3.412-1.825v-0.365L134.305,141H133.575z"/>
	<path fill="#FFFFFF" d="M124.32,139.707c-1.46,0.488-2.32,0.973-2.32,1.46v0.365c0,0.365,0.746,0.468,1.719,1.468h1.46
		c0.791,0,1.578-0.369,2.49-1.099C127.67,140.929,126.51,140.194,124.32,139.707z"/>
	<path fill="#FFFFFF" d="M108,114.885v-2.92c0-0.365-0.04-0.73-0.77-1.095c-1.703,1.583-2.23,3.043-2.23,4.38v3.285
		c0,0.365,0.103,0.465,0.833,0.465h0.365C107.658,117,108,115.373,108,114.885z"/>
	<path fill="#FFFFFF" d="M107.293,60.478C107.05,60.053,106.928,59,106.928,59h-1.46c-0.73,0-1.468,1.009-1.468,2.226v3.65
		l0.917,1.086C105.951,65.962,106.867,64.128,107.293,60.478z"/>
	<path fill="#FFFFFF" d="M53,143.722v0.73l1,0.365c0.973-0.365,1-0.73,1-1.095v-0.73c0-0.242-0.878-0.365-1-0.365
		C53.027,142.992,53,143.357,53,143.722z"/>
	<path fill="#FFFFFF" d="M111.308,20.029l-0.877-0.208c-2.19,0.305-3.432,1.558-3.432,3.442V23h1.388
		C110.335,22,111.308,20.941,111.308,20.029z"/>
	<path fill="#FFFFFF" d="M44,143.357v0.365c0,0.243,0.376,0.608,1.349,1.095c1.582,0,2.5-1.095,2.865-3.285l-0.647-0.365
		C46.29,141.167,45,141.897,44,143.357z"/>
	<path fill="#FFFFFF" d="M86.852,96h-1.095c-7.118,0-11.133,1.9-12.046,5.062c-0.426,0-0.669,0.767-0.73,1.983l0.73,2.634
		c-1.643,5.233-4.32,9.044-8.031,11.355c-3.833,1.703-6.023,2.575-6.571,2.575c-8.517,0-14.479-3.882-17.886-11.671
		c-0.548,0-1.886-3.522-4.015-10.581c-1.217-16.974-1.825-25.974-1.825-27.009c1.217-19.223,2.677-28.836,4.38-28.836
		c0-4.38,3.407-9.49,10.221-15.33c2.92-0.972,4.989-1.46,6.206-1.46c7.301,2.19,10.951,4.503,10.951,6.936
		c1.034,0,1.764,3.115,2.19,9.686C71.156,42.563,72.494,43,73.346,43h1.095c0.548,0,1.034,0.048,1.46-0.195
		c0.547,0.243,1.643,0.573,3.285,0.815c4.867-1.702,7.301-3.85,7.301-6.528C86,32.59,84.905,27.38,83.202,21.417
		c-2.92-5.475-6.206-8.992-9.856-10.575c-3.224-1.947-8.943-3.82-17.156-4.794L53.634,6h-6.571c-3.164,0-8.031,1.879-14.601,4.799
		c-5.11,4.076-7.666,7.206-7.666,8.97c-3.164,4.806-4.676,10.508-4.676,16.896C18.661,38.307,18,48.755,18,67.796v12.776
		c0,4.686,0.783,12.228,2.486,22.632c0,3.408,1.79,9.476,5.441,18.723C32.072,132.148,42.258,137,56.555,137h0.73
		c3.346,0,7.848-0.714,13.506-2.662c3.042-1.155,7.245-4.434,12.477-10.092C87.77,117.189,90,110.139,91,102.839v-1.095
		C91,98.337,89.529,96,86.852,96z"/>
	<path fill="#FFFFFF" d="M104.008,86.508c0.365,0.973,0.73,1.492,1.095,1.492h0.365c1.46-1,2.532-2.439,2.532-4.507V81h-1.072
		C104.981,82,104.008,83.648,104.008,86.508z"/>
	<path fill="#FFFFFF" d="M108.388,28.739c-0.487,0-0.73-0.242-0.73-0.73c-1.947,1.036-2.92,2.251-2.92,3.65l1.095,0.73
		C107.536,31.659,108.388,30.442,108.388,28.739z"/>
	<path fill="#FFFFFF" d="M108,72.177c0-1.337-0.966-2.19-2.182-2.555c-0.973,0.913-1.818,2.496-1.818,4.745v2.555
		c0,0.488,0.677,0.078,1.103,0.078h1.095L108,73.272V72.177z"/>
	<path fill="#FFFFFF" d="M382.614,69c1.46-1,2.386-1.69,2.386-3.029v-3.65c0-0.487-0.439-1.321-0.926-1.321h-0.73
		c-1.034,2-1.643,4.243-1.825,7.468l0.73,0.532H382.614z"/>
	<path fill="#FFFFFF" d="M435.178,85c1.703-2,2.822-3.027,2.822-4.428v-2.555c0-0.487-0.418-0.73-0.905-0.73
		C435.148,78.2,434,79.418,434,80.937v3.285c0,0.488,0.387,0.777,0.813,0.777H435.178z"/>
	<path fill="#FFFFFF" d="M408.166,7h-0.365c-1.399,0-2.251,0.123-2.555,0.365C403.907,7.123,402.812,7,401.961,7h-5.11
		c-4.137,0-5.85,1.662-5.85,3.852v3.285c0,1.278,0.122,2.373,0.365,3.285C391.122,18.7,391,19.918,391,21.073v5.11
		c0,0.853-0.543,3.043-1.273,6.57c0.243,3.346,0.184,5.416,0.184,6.205c-0.487,1.583-0.911,2.678-0.911,3.285v7.301
		c0,0.548-0.122,1.036-0.365,1.46c0.243,0.426,0.365,0.913,0.365,1.46v7.3c0,0.791-0.029,1.401-0.273,1.825
		c0.243,0.973,0.411,1.825,0.411,2.555c0,4.441,0.632,19.164,1.848,44.168c0,0.243-0.115,0.608-0.358,1.095
		c0.243,1.643,0.372,2.981,0.372,4.015v17.886l-0.36,1.932c0,2.678,2.925,3.757,8.765,3.757h8.031c2.433,0,4.564-1.309,5.564-4.959
		v-2.92c0-5.597-1-15.331-2-29.202v-4.015l2.051-32.852c0-0.79-0.191-1.399-0.435-1.825c0-1.278,0.087-3.71,0.33-7.301
		c0-2.312-0.139-13.383-0.382-33.217c0.243-5.475,0.356-9.166,0.356-10.504C412.129,8.257,410.539,7,408.166,7z"/>
	<path fill="#FFFFFF" d="M434,130.216v2.19c0,0.488,0.752,0.594,1.178,0.594h0.365c0.913,0,1.457-1.689,1.457-5.339v-0.365
		C435,127.296,434,128.269,434,130.216z"/>
	<path fill="#FFFFFF" d="M435.178,94h0.365c0.73,0,1.46-1.663,2.19-5.801c-0.487-0.242-0.852-0.163-1.095-0.163
		c-1.703,0.488-2.555,1.887-2.555,4.807C434.448,93.816,434.813,94,435.178,94z"/>
	<path fill="#FFFFFF" d="M436.638,98c-1.46,1-2.638,2.407-2.638,3.744v2.555l1.087,1.095c0.973,0,1.913-1.46,2.913-4.38v-1.46
		c0-0.487-0.51-1.554-0.997-1.554H436.638z"/>
	<path fill="#FFFFFF" d="M436.638,119c-1.217,1-1.825,2.973-1.825,3.643l0.73,0.357h0.73c1.217-2,1.825-2.972,1.825-3.643
		l-0.73-0.357H436.638z"/>
	<path fill="#FFFFFF" d="M437.368,54c-1.399,1-2.368,2.056-3.368,3.211v5.475c0,0.488,0.528,0.73,0.954,0.73
		c1.338,0,2.424-2.76,3.032-8.358c-0.243-0.487-0.253-1.058-0.253-1.058H437.368z"/>
	<path fill="#FFFFFF" d="M437.327,66.336c-2.19,1.218-3.327,2.678-3.327,4.38v2.555c0,0.365,0.407,0.73,1.137,1.095
		c1.46-1.582,2.433-4.015,2.92-7.301C437.57,67.066,437.327,66.824,437.327,66.336z"/>
	<path fill="#FFFFFF" d="M437.368,109h-0.365c-1.46,1-2.003,2.235-2.003,3.695V115h1.273c1.217-2,1.727-3.035,1.727-3.765v-1.46
		C438,109.288,437.855,109,437.368,109z"/>
	<path fill="#FFFFFF" d="M383.902,135.691c0,0.123,0.098,0.488-0.902,1.095v4.015c0,0.488,0.649,0.198,1.074,0.198h0.73
		c0.426,0,1.191-0.706,2.469-2.654C387.274,136.764,386.092,136.056,383.902,135.691z"/>
	<path fill="#FFFFFF" d="M383.344,56c0.365,0,0.656,0.359,1.656-0.615v-5.84c0-0.487-0.341-0.73-0.828-0.73
		c-0.852,0-1.509,1.89-1.874,6.513c0.243,0.488,0.316,0.672,0.316,0.672H383.344z"/>
	<path fill="#FFFFFF" d="M383.709,132c0.365,0,1.291-0.446,1.291-1.419v-4.38c0-0.365-0.28-0.73-1.01-1.095
		c-0.973,0-1.661,1.563-2.148,4.725c0.487,1.46,1.016,2.17,1.503,2.17H383.709z"/>
	<path fill="#FFFFFF" d="M382.347,78.382c1.582-0.607,2.653-1.217,2.653-1.825v-2.19l-0.828-1.095c-0.913,0-1.764,1.338-2.555,4.015
		C381.86,78.017,382.104,78.382,382.347,78.382z"/>
	<path fill="#FFFFFF" d="M383.709,44h0.73L385,42.245v-4.38c0-0.487-0.331-0.73-0.818-0.73c-0.73,0.123-1.182,1.095-1.182,2.92
		v3.285C383,43.828,383.284,44,383.709,44z"/>
	<rect x="407.436" y="143.357" fill="#FFFFFF" width="0.73" height="0.73"/>
	<path fill="#FFFFFF" d="M437.368,42c-1.947,0-3.368,2.01-3.368,3.53v5.11c0,0.488,0.752,0.36,1.178,0.36h0.73
		c1.46-3,2.19-4.135,2.19-5.23c-0.243-2.129-0.365-3.77-0.365-3.77H437.368z"/>
	<path fill="#FFFFFF" d="M400.866,143h-1.46c-0.487,0-0.405,0.297-0.405,0.722v0.73l1.663,0.365c0.365,0,0.649-0.361,1.014-1.091
		C401.677,143.239,401.352,143,400.866,143z"/>
	<path fill="#FFFFFF" d="M384.074,31c0.973,0,1.926-1.043,1.926-4.452v-0.365c0-0.487-0.709-1.183-1.196-1.183h-0.365
		c-0.73,0-1.217,1.845-1.46,5.738l0.73,0.262H384.074z"/>
	<path fill="#FFFFFF" d="M392.47,142h-1.095c-0.365,0-0.73,0.393-1.095,1.365l1.095,0.635h0.73c0.365,0,0.895,0.452,0.895-0.278
		v-0.365C393,142.87,392.957,142,392.47,142z"/>
	<path fill="#FFFFFF" d="M480.076,94H478v1.173c0,1.46,0.434,1.827,0.981,1.827h0.73c0.73,0,1.095-1.012,1.095-2.23
		C480.806,94.283,480.563,94,480.076,94z"/>
	<path fill="#FFFFFF" d="M480.076,32.79c-0.304-1.217-0.669-1.79-1.095-1.79h-0.365C478.13,31,478,31.234,478,31.659v1.825
		l1.768,0.383C479.768,33.625,479.833,33.277,480.076,32.79z"/>
	<path fill="#FFFFFF" d="M470.586,97h-0.365c-0.73,0-1.095,1.155-1.095,2.372c0,2.19,0.243,4.106,0.73,5.566
		c0,1.036-0.365,4.487-1.095,10.266c1.521,1.218,3.342,1.848,4.985,1.848c2.677,0,4.255-1.924,4.255-5.818v-3.285
		C478,102.597,475.209,99,470.586,97z"/>
	<path fill="#FFFFFF" d="M471.681,49h0.73c1.156,0,2.129-1.553,2.92-5.203c0-6.813-1.854-10.084-5.261-10.084
		c-0.913,0-2.07,0.866-3.07,2.326v4.38C467,46.503,468.76,49,471.681,49z"/>
	<path fill="#FFFFFF" d="M476.791,93.348c-0.243-0.972-0.909-1.46-2.126-1.46c-0.487,0.061-0.666,0.305-0.666,0.73v0.73
		c1,0,1.517,0.123,2.491,0.365C476.491,93.471,476.548,93.348,476.791,93.348z"/>
	<path fill="#FFFFFF" d="M437.278,30.929c-2.19,1.583-3.278,3.408-3.278,5.475v1.825c0,0.488,0.387,0.771,0.813,0.771h0.73
		c1.703-2,2.457-3.265,2.457-4.421v-2.92C438,31.172,437.764,30.929,437.278,30.929z"/>
	<path fill="#FFFFFF" d="M496.868,75.827c-3.042-1.702-6.814-2.555-11.316-2.555c-1.46-1.034-2.19-2.129-2.19-3.285
		c0-1.885,2.799-2.98,8.396-3.285c6.266-2.494,10.359-6.145,12.367-10.951c0.912-0.913,1.876-4.928,2.876-12.046v-2.19
		c0-14.478-6.526-25.423-19.667-32.358C482.344,7.209,477.765,6,473.506,6h-20.076C446.129,6,442,7.567,442,9.757v13.506
		c0,2.313,0.117,4.624-0.126,6.935c0.243,1.278,0.485,2.496,0.485,3.65c-0.243,4.259-0.305,6.814-0.305,7.666
		c0.243,1.278,0.395,2.008,0.395,2.19l-0.35,1.825l0.373,2.555l-0.361,3.285c0,0.791,0.067,1.401,0.31,1.825
		c-0.243,2.496-0.42,4.441-0.42,5.84v5.84c0,0.973,0.122,1.46,0.365,1.46L442,68.891v33.582c0,3.043,0.122,5.84,0.365,8.396
		c-0.243,1.278-0.365,3.711-0.365,7.301v11.681c0,1.035-0.065,2.373-0.308,4.015c0,1.948,2.34,2.845,6.964,2.845
		c6.631,0.243,14.204,0.289,22.66,0.289h10.951c8.761-2,14.236-3.087,16.426-4.67c5.354-3.65,8.639-8.114,9.856-13.468
		c1.703-3.407,2.555-8.377,2.555-14.947C511.104,90.409,506.358,81.06,496.868,75.827z M461.825,38.229
		c0-0.304,0.243-1.643,0.73-4.015c-0.487-2.067-0.73-4.206-0.73-5.79c1.643-3.407,4.684-5.424,9.126-5.424h2.92
		c4.867,0,8.761,2.869,11.681,7.98c0.243,2.373,0.73,4.598,1.46,6.362c0,8.578-3.164,14.01-9.491,16.14
		c-1.582,0.243-3.164,0.404-4.745,0.404c-6.327,0-9.491-2.292-9.491-6.916C462.981,46.97,462.494,44.07,461.825,38.229z
		 M485.552,117.712c0,1.401-3.894,2.288-11.681,4.288h-1.095c-5.84-1-8.776-1.944-8.776-3.83v-3.65c0-3.589,0.129-6.753,0.373-9.491
		c-0.243-1.702-0.361-3.162-0.361-4.38l0.367-3.285c-0.243-1.885-0.364-3.954-0.364-6.205c0-2.19,1.582-3.772,4.746-4.745
		c9.795,0,16.244,3.164,19.347,9.491l2.19,9.444C488.898,113.622,487.316,117.712,485.552,117.712z"/>
	<path fill="#FFFFFF" d="M484.092,104.664c-0.487,0.061-0.73,0.305-0.73,0.73v1.095h0.73c0.487,0,0.73-0.242,0.73-0.73
		c-0.243-0.487-0.365-0.852-0.365-1.095H484.092z"/>
	<path fill="#FFFFFF" d="M483,99h-0.004c-0.365,0-0.996,0.919-0.996,1.649v1.095c1-0.365,1-0.73,1-1.095V99z"/>
	<rect x="439.923" y="141.167" fill="#FFFFFF" width="1.095" height="1.095"/>
	<path fill="#FFFFFF" d="M446.129,141c-0.852,0-1.46,1.239-1.825,2.273l1.095,0.772c1.947-1.337,2.92-2.253,2.92-2.618l-0.73-0.428
		H446.129z"/>
	<path fill="#FFFFFF" d="M450.509,143.131c0,0.365,0.365,0.869,1.095,0.869h0.73c1.217-1,1.825-1.111,1.825-1.964
		c-0.608-0.487-0.973-0.73-1.095-0.73C451.361,142.159,450.509,142.766,450.509,143.131z"/>
	<path fill="#FFFFFF" d="M437.368,20h-0.73c-1.947,2-2.92,3.696-2.92,7.285L434.813,28h0.73c1.703-2,2.457-2.971,2.457-4.007v-2.555
		C438,20.951,437.855,20,437.368,20z"/>
	<path fill="#FFFFFF" d="M472.374,142.627c-0.973,0.365-1.365,0.73-1.365,1.095v0.646h0.672l1.328-0.281v-1.095
		C473.009,142.992,472.374,142.87,472.374,142.627z"/>
	<path fill="#FFFFFF" d="M459.27,142.368h-0.73c-0.487,0-0.531,0.564-0.531,0.989v0.365c0,0.488,0.105,0.646,0.531,0.646h0.365
		c0.365,0,0.73-0.452,1.095-1.183C460,142.699,459.756,142.368,459.27,142.368z"/>
	<path fill="#FFFFFF" d="M481.901,37.499v-0.365c0-0.487-0.243-0.73-0.73-0.73l-0.365,0.73v1.095h0.365
		C481.658,38.229,481.901,37.987,481.901,37.499z"/>
	<path fill="#FFFFFF" d="M465.84,143h-1.46c-0.487,0-0.73,0.301-0.73,0.726c0,0.243,0.487,0.606,1.46,1.093
		c0.973-0.365,1.46-0.727,1.46-1.092C466.57,143.24,466.327,143,465.84,143z"/>
	<path fill="#FFFFFF" d="M369.915,117.268c-1.643-0.73-2.876-1.268-3.91-1.268h-22.632c-1.399,0-3.346,0.305-5.84,0.548
		c-1.278-0.487-3.833-0.548-7.666-0.548h-2.555c-2.92,0-4.212-2.077-4.212-6.216c0.487-3.042,0.899-5.607,0.899-7.676v-4.015
		c-1-5.475-1-8.396-1-8.761v-0.73c-1-29.809-1.859-47.94-1.859-54.389c0-6.023,0.227-14.776,0.713-25.788
		C321.368,6.966,320.377,6,318.917,6h-16.426l-1.658,1.696L301,8.662v0.365c0,1.703-0.122,2.555-0.365,2.555l0.365,4.38v62.419
		c0,2.251,0.32,5.416,0.563,9.491l-0.146,0.73c0.243,2.068,0.584,3.773,0.584,5.11v6.57c0,0.365,0,3.285,0,8.761v14.601
		c0,1.948,0.124,4.503-0.12,7.666c0.791,3.043,2.009,4.596,3.408,5.447c6.145-0.242,11.134-0.758,14.724-0.758h40.153
		c7.544,0,11.21-0.459,11.21-2.162c0.487-0.79,0.625-1.127,0.625-1.797v-2.92C372,121.334,371.375,117.268,369.915,117.268z"/>
	<path fill="#FFFFFF" d="M297.238,135.326c-0.73,0.243-1.238,0.973-1.238,2.19v0.73c0,0.365,0.651,0.754,1.381,0.754h0.365
		c0.487,0,0.78-0.559,1.024-2.019C298.283,135.886,297.725,135.449,297.238,135.326z"/>
	<path fill="#FFFFFF" d="M298.111,125.728c-0.243-1.46-0.386-2.136-0.873-2.136c-0.669,0-1.238,1.272-1.238,3.704v1.095L295.921,130
		h1.46C297.867,128,298.111,126.946,298.111,125.728z"/>
	<path fill="#FFFFFF" d="M298.111,115.98c-0.304-1.46-0.669-2.19-1.095-2.19c-1.46,1.156-2.19,2.738-2.19,4.745
		c0.487,0.243,0.852,0.365,1.095,0.365C297.381,118.353,298.111,117.38,298.111,115.98z"/>
	<path fill="#FFFFFF" d="M301,142.992v0.365c0,0.365,0.722,0.73,1.453,1.095c1.46-0.242,2.547-0.607,2.547-1.095v-1.095
		l-2.182-0.365C301.844,142.262,301,142.627,301,142.992z"/>
	<path fill="#FFFFFF" d="M385,19.978v-1.095c0-0.487-0.074-0.883-0.561-0.883h-0.73L383,20.708v0.365l0.635,1.095
		C384.608,21.926,385,21.196,385,19.978z"/>
	<path fill="#FFFFFF" d="M311.982,142h-1.825c-0.487,0-1.157,0.932-1.157,1.357v0.365c0,0.488,0.731,0.278,1.157,0.278h1.46
		c0.365,0,0.73-0.452,1.095-1.183C312.712,142.331,312.468,142,311.982,142z"/>
	<path fill="#FFFFFF" d="M297.19,75.636L297,74.002V71h-1.444c-0.973,1-1.556,2.03-1.556,3.367v2.19L294.46,78h0.73
		C295.556,78,296.339,77.339,297.19,75.636z"/>
	<path fill="#FFFFFF" d="M295.556,55c0-1,0.365-1.127,1.095-2.587c-0.243-2.92-0.608-4.413-1.095-4.413h-0.73
		c-0.73,0-0.825,1.058-0.825,2.275v2.92L294.095,55H295.556z"/>
	<path fill="#FFFFFF" d="M295,84.953v3.285c2,0,2-0.852,2-2.555V83h-0.349C296.346,83,296,83.736,295,84.953z"/>
	<path fill="#FFFFFF" d="M294.825,22c0.608,0,1.175-0.804,1.175-2.752v-2.555l-0.587-1.095c-1.217,0-1.754,1.499-1.754,4.661
		L294.095,22H294.825z"/>
	<path fill="#FFFFFF" d="M296.286,98c0.365,0,0.714,0.459,0.714-0.271V93h-0.349c-1.217,1-1.825,1.648-1.825,2.865L295.191,98
		H296.286z"/>
	<path fill="#FFFFFF" d="M294.825,32c1.217-1,2.175-1.193,2.175-2.531v-2.19c0-0.487-0.283-0.73-0.77-0.73
		c-1.46,0.488-2.23,1.46-2.23,2.92v1.095L294.095,32H294.825z"/>
	<path fill="#FFFFFF" d="M295.952,109.044c1.217-0.365,2.048-1.217,2.048-2.555v-0.73L297.381,104h-0.73
		c-0.669,0-1.651,1.152-1.651,3.584v0.73C295,108.802,295.527,109.044,295.952,109.044z"/>
	<path fill="#FFFFFF" d="M294.46,43h0.365c0.852,0,1.175-1.363,2.175-4.041v-1.095c0-0.487-0.593-0.864-1.079-0.864h-0.73
		c-0.973,0-1.191,1.352-1.191,2.689v2.555C294,42.733,294.035,43,294.46,43z"/>
	<path fill="#FFFFFF" d="M295.191,66c0.73,0,0.809-0.271,0.809-1.489v-3.65c0-0.487,0.034-0.73-0.452-0.73
		c-1.217,0.365-1.548,1.218-1.548,2.555v2.92c0,0.365,0.095,0.394,0.825,0.394H295.191z"/>
	<path fill="#FFFFFF" d="M317.092,142.766c0.365,0.973,0.73,1.234,1.095,1.234h1.095l2.718-0.278v-1.46l-1.906-0.478
		C319.181,141.784,318.126,142.036,317.092,142.766z"/>
	<path fill="#FFFFFF" d="M384.074,115c-0.365,0-1.074,0.25-1.074,0.98v4.745c0,0,0.72,0.123,0.72,0.365
		c0.791,0,1.637-1.159,2.55-3.593c-0.487-1.217-0.735-2.498-0.735-2.498H384.074z"/>
	<path fill="#FFFFFF" d="M259.692,140h-0.73c-1.217,0-1.947,0.889-2.19,1.861c0.608,0.488,0.884,0.93,1.249,0.93
		c1.46-0.242,1.979-0.407,1.979-0.895v-0.365C260,141.045,260.178,140,259.692,140z"/>
	<path fill="#FFFFFF" d="M266,140.802v0.73c2-0.913,3-1.643,3-2.19v-0.365l-0.405-0.73C267.926,138.246,267,139.099,266,140.802z"/>
	<path fill="#FFFFFF" d="M384.439,104c-0.365,0-0.439,0.299-1.439,1.029v4.745c0,0.488,0.649,0.226,1.074,0.226h0.365
		c0.669,0,1.156-1.417,1.46-4.825c-0.243-0.425-0.365-1.175-0.365-1.175H384.439z"/>
	<path fill="#FFFFFF" d="M251.296,141h-1.46c-0.365,0-0.836,0.532-0.836,1.262V143h1.201l1.799-0.373v-0.73
		C252,141.41,251.783,141,251.296,141z"/>
	<path fill="#FFFFFF" d="M384.074,82h-0.365c-0.791,0-1.709,2.345-1.709,6.238v0.365c2,0,2-0.487,3-1.46v-4.015
		C385,82.641,384.561,82,384.074,82z"/>
	<path fill="#FFFFFF" d="M384.074,92c-0.73,0-1.074,1.713-1.074,3.538v2.555c0,0.365,0.27,0.73,1,1.095c0.365,0,1-0.365,1-1.095
		v-4.745c0-0.487-0.074-1.348-0.561-1.348H384.074z"/>
	<path fill="#FFFFFF" d="M250.931,103.204v0.73h1.095c0.487,0,0.73-0.242,0.73-0.73c0-0.487-0.243-0.73-0.73-0.73h-0.365
		C251.174,102.535,250.931,102.779,250.931,103.204z"/>
	<path fill="#FFFFFF" d="M339.504,141.532c-2.312,0.73-3.504,1.095-3.504,1.095v1.095c0,0.488,0.013,0.278,0.438,0.278h3.285
		c0.365,0,0.925-0.261,1.533-1.234C341.135,142.279,340.6,142.02,339.504,141.532z"/>
	<path fill="#FFFFFF" d="M326.583,143.131c0,0.365,0.365,0.869,1.095,0.869h2.19c0.365,0,1.132,0.087,1.132-0.643v-1.095
		l-1.844-0.478C327.453,142.089,326.583,142.462,326.583,143.131z"/>
	<path fill="#FFFFFF" d="M249,94.443v2.19L249.471,98h1.095c0.487,0,0.434,0.217,0.434-0.271v-0.73
		C251,95.296,251,94.443,249,94.443z"/>
	<path fill="#FFFFFF" d="M349.615,141.532c-2.434,0.305-3.615,0.791-3.615,1.46v1.095c0,0,0.573,0.123,1.06,0.365
		c2.433-0.669,3.65-1.399,3.65-2.19C350.71,141.775,350.345,141.532,349.615,141.532z"/>
	<path fill="#FFFFFF" d="M363,142.627v1.095c1,0,0.834-0.143,1.685,0.099c1.217-1.46,2.05-2.821,2.05-2.821h-1.095
		C364.18,141,363,142.02,363,142.627z"/>
	<path fill="#FFFFFF" d="M237.06,24.044c0.852,0,3.407-1.044,7.666-1.044h0.73c5.05,0,8.335,1.532,9.856,2.139
		c2.677,3.226,4.015,8.396,4.015,15.636c1.886,2.068,3.833,3.225,5.84,3.225h4.015c4.867-1,6.818-2.121,6.818-3.946V25.088
		c0-5.535-1.462-10.525-4.869-14.966c-3.589-1.947-6.145-2.92-7.91-2.92c-4.319,0-8.761-0.122-13.445-0.365
		c-7.057,0.243-14.814,0.365-23.332,0.365c-3.103,0-5.643,0.73-7.65,2.19c-5.354,2.19-7.999,6.57-7.999,13.141
		c-1.217,2.555-1.794,4.138-1.794,4.745v0.365c0,3.103-0.145,6.631-0.388,10.586l0.559,1.825C208.927,41.637,209,43.218,209,44.8
		v4.38c0,7.666,6.608,15.454,20.235,23.362c2.129,1.886,7.867,5.901,17.418,12.046c7.057,5.719,10.534,10.221,10.534,13.506
		c0.243,3.346,0.339,5.416,0.339,6.205l-0.378,2.555c0.243,0.488,0.359,0.853,0.359,1.095c0,3.164-2.072,6.328-6.209,9.491
		c-0.365,0.488-3.895,0.973-10.587,1.46c-6.205-0.73-9.155-1.702-9.276-2.92c-2.433-2.19-3.436-5.352-3.436-9.491v-2.555
		c0-0.365-0.917-0.934-1.891-1.934h-8.396c-1.399,0-3.346,0.115-5.841-0.128c-1.156,0-2.167,0.971-3.444,2.674
		c0.243,2.861,0.571,5.046,0.571,6.324v5.84c2,9.734,3.688,14.601,5.634,14.601c2.434,2.678,5.616,3.94,9.753,3.94
		c0.365,0.365,2.939,0.749,7.928,1.749h4.015c1.034,0,2.373-0.046,4.015-0.289c0.243,0.243,1.703,0.526,4.38,0.768
		c6.692-0.487,14.236-1.683,22.632-3.631c3.772-1.825,6.329-4.978,8.154-9.481c0.487-0.972,0.489-2.302,0.489-4.006v-4.015
		c1-5.475,1-8.396,1-8.761v-4.015c0-11.438-1.354-17.156-2.449-17.156c0-3.468-4.206-8.578-12.723-15.331
		c-14.784-8.638-24.248-14.478-28.445-17.521c-1.947-1.278-3.637-5.9-5.097-13.871c-0.243-1.278-0.358-2.469-0.358-3.625
		C227.928,30.165,230.976,26.175,237.06,24.044z"/>
	<path fill="#FFFFFF" d="M357.94,141.167c-1.947,0.73-2.903,1.417-2.903,2.147L356.15,144h0.73c1.278,0,2.12-0.278,2.12-1.008v-0.73
		C359,142.079,358.67,141.714,357.94,141.167z"/>
	<path d="M84.661,91h-1.46c-3.042,1-4.745,1.539-5.11,1.722c-6.875,0-11.62,1.714-14.236,4.876
		c-2.434,1.825-3.435,5.419-3.435,10.651c0.243,0,0.58,0.43,0.58,1.16v1.095c-2,2.434-3.805,3.65-6.056,3.65
		c-4.624,0-8.311-4.38-10.987-13.141C42.01,95.661,41,88.968,41,80.937V66.701c0-4.015,0.051-7.908,0.294-11.681
		c1.703-7.118,2.52-11.26,2.52-11.93c3.589-3.892,6.474-6.09,8.725-6.09h0.73c0.669,0,1.399,0.493,2.19,0.98
		c1.399,8.274,2.859,12.526,4.38,12.526c0,1.521,4.015,2.495,12.046,4.495h0.73c7.544-2,11.316-2.787,11.316-4.005
		c1.703,0,4.137-4.375,7.301-13.136l-1.46-10.218l-2.555-8.394c-2.555-5.05-5.597-9-9.126-11.496C74.745,4.83,67.81,2,57.285,1
		h-8.031c-9.977,2-17.4,4.379-22.267,8.211c-5.719,2.981-11.073,8.182-16.061,15.422c-2.008,5.354-3.346,8.564-4.015,9.536
		c0,2.008-0.973,8.966-2.92,20.829l0.37,2.201C4.117,60.485,4,63.294,4,65.606v2.19c0,1.156,0.117,2.373,0.36,3.65
		c-0.243,0.973-0.367,1.825-0.367,2.555c0,4.928,0.12,11.012,0.364,18.251c1.46,5.11,2.19,9.979,2.19,14.601
		c1.825,8.154,3.163,12.534,4.015,13.141c1.947,6.996,6.205,13.688,12.776,20.076c5.597,3.65,8.639,5.475,9.126,5.475
		c4.867,2.434,11.924,3.65,21.172,3.65c3.346-0.73,6.51-1.217,9.491-1.46c9.977-3.892,17.215-9.733,21.595-17.521
		c4.076-4.319,7.28-11.01,10.28-20.076v-1.825c0-1.702,0.184-4.277,0.671-7.197C95.671,94.547,91.962,91,84.661,91z M66.775,101.014
		h1.095v1.095c0,0.488-0.243,0.73-0.73,0.73l-0.73-0.365C66.654,101.622,66.775,101.137,66.775,101.014z M67.14,107.219l0.73,0.16
		c-0.182,1.218-0.547,1.62-1.095,1.62H66.41l-0.73-0.16C66.167,107.745,66.654,107.342,67.14,107.219z M59.009,32.368h-1.725
		c-0.426,0-0.275-0.586-0.275-1.074v-0.926h0.641c0.365,0,0.359,0.318,1.359,1.291V32.368z M59.11,32h2.92
		c0.487,0,0.97,0.632,0.97,1.119v1.46C62,35.552,61.665,36,61.3,36h-0.73C60.022,36,59.536,34,59.11,32z M62.03,42.975l-0.73-1.622
		c0-1.217,0.365-2.352,1.095-2.352h0.365c0.426,0,0.791,0.771,1.095,1.987C63.307,42.143,62.699,42.915,62.03,42.975z M66,46.99
		c0,0.488,0.167,0.01-0.32,0.01h-0.73c-0.974,0-1.46-0.818-1.46-1.183C63.855,45.087,64.22,45,64.585,45h0.365
		c0.973,0,1.05,1.26,1.05,1.625V46.99z M73,49.545c-1,0-0.801,0.123-1.287,0.365c-1.217,0-2.043-0.529-2.286-1.503L70.061,48h1.825
		C72.372,48,73,48.328,73,48.815V49.545z M12,36.039C12,33.849,13.238,32,14.942,31H16v1.754C16,34.214,14.942,35,13.481,36H12
		V36.039z M13.116,40h0.365C13.968,40,14,41.028,14,41.514v1.095c0,1.218-0.64,2.39-2.344,4.39h-0.365
		c-0.548,0-0.913-0.822-1.095-2.04C10.196,43.743,11.17,42,13.116,40z M12.751,49h0.73c0.487,2,0.73,2.587,0.73,2.952
		c0,0.913-1.095,2.048-3.285,4.048h-0.365c-0.73,0-1.095-0.397-1.095-0.762C9.466,52.683,10.561,51,12.751,49z M9,63.416
		C9,62.138,10.561,60,12.751,59H13v1.131C12,63.294,11.656,65,10.926,65h-0.73C9.77,65,10,64.634,9,64.146V63.416z M9,74.002v-0.365
		c1-3.65,1.267-5.475,2.788-5.475c0.73,0,1.333,0.122,1.577,1.094c0,1.886-0.735,3.744-2.439,4.744h-0.73C9.77,74,10,74.49,9,74.002
		z M13,77.652v1.825C13,81.363,12.751,82,11.291,83h-0.73C10.135,83,10,83.25,10,82.762v-2.555C11,78.505,12,77.652,13,77.652z
		 M12.386,86.048c0.973,0.243,1.46,0.853,1.46,1.825c0,0.67-0.73,2.251-2.19,4.745c-0.852-0.487-1.46-1.217-1.825-2.19
		C9.831,88.055,10.683,86.595,12.386,86.048z M10,99.554v-1.095c1-3.407,1.757-5.11,2.182-5.11C13.399,94.261,14,94.869,14,95.173
		v1.095C14,96.816,13.481,98,12.021,101h-0.365C10.683,100,10,99.919,10,99.554z M11.291,105.683c0.973-1.46,1.46-2.683,1.46-3.683
		h1.095c1.46,1,2.19,2.04,2.19,3.317c0,1.825-0.608,2.683-1.825,3.683h-0.73C12.021,108,11.291,106.96,11.291,105.683z M19.322,126
		h-0.365c-1.278,0-2.008-2.332-2.19-7.2c-2.19-1.885-3.285-3.418-3.285-4.695c0-1.337,0.36-2.165,1.577-2.53
		c1.278,0,1.942,1.243,1.942,3.675v2.555l5,5.475v0.73C20,125.471,19.687,126,19.322,126z M24.067,133.136
		c-2.19-1.217-3.285-2.677-3.285-4.38c0-0.487,0.73-0.972,2.19-1.46c1.217,0.365,2.433,1.703,3.65,4.015
		C26.501,131.919,25.649,132.529,24.067,133.136z M30.273,138h-0.73c-1.703-1-2.555-1.579-2.555-2.98
		c0-0.122,0.487-0.577,1.46-1.672c1.278,0,2.616,0.866,4.015,3.056C32.463,137.622,31.733,138,30.273,138z M39.619,142.627
		c-3.103,0-4.619-0.607-5.619-1.825v-0.365c1-1.217,1.87-2.437,3.208-2.437h0.73c1.399,1,2.301,1.948,2.848,2.861L39.619,142.627z
		 M45.349,144.817C44.376,144.33,44,143.965,44,143.722v-0.365c1-1.46,2.262-2.19,3.539-2.19l0.73,0.365
		C47.905,143.722,46.931,144.817,45.349,144.817z M55,143.722c0,0.365-0.027,0.73-1,1.095l-1-0.365v-0.73
		c0-0.365,0.027-0.73,1-1.095c0.122,0,1,0.123,1,0.365V143.722z M91,102.839c-1,7.301-3.23,14.479-7.732,21.537
		c-5.232,5.658-9.402,8.808-12.444,9.963C65.166,136.286,60.631,137,57.285,137h-0.73c-14.297,0-24.518-4.852-30.662-15.073
		c-3.65-9.247-5.406-15.444-5.406-18.852C18.783,92.672,18,85.258,18,80.572V67.796c0-19.041,0.661-29.385,2.121-31.027
		c0-6.388,1.547-11.985,4.711-16.791c0-1.764,2.538-5.103,7.648-9.179C39.051,7.879,43.9,6,47.064,6h6.571l2.555,0.053
		c8.213,0.973,13.932,2.643,17.156,4.59c3.65,1.583,6.935,5.215,9.856,10.69C84.905,27.297,86,32.58,86.487,37.082
		c0,2.678-2.433,4.894-7.301,6.597c-1.643-0.242-2.738-0.643-3.285-0.887C75.475,43.035,74.988,43,74.441,43h-1.095
		c-0.852,0-2.19-0.437-4.015-1.655c-0.426-6.57-1.156-9.771-2.19-9.771c0-2.432-3.65-4.703-10.951-6.893
		c-1.217,0-3.285,0.509-6.206,1.481c-6.814,5.84-10.221,10.961-10.221,15.342c-1.703,0-3.164,9.619-4.38,28.842
		c0,1.036,0.608,10.041,1.825,27.015c2.129,7.058,3.468,10.587,4.015,10.587c3.407,7.789,9.369,11.682,17.886,11.682
		c0.548,0,2.738-0.851,6.571-2.555c3.711-2.312,6.388-6.082,8.031-11.316l-0.73-2.555c0.061-1.217,0.304-2.142,0.73-2.142
		C74.623,97.9,78.639,96,85.757,96h1.095C89.529,96,91,98.337,91,101.744V102.839z"/>
	<path d="M163.507,53.56c-0.243-6.145-0.365-10.645-0.365-13.506c0-6.327-3.772-9.455-11.316-9.455
		c-2.312,0.243-4.624,0.401-6.935,0.401h-2.555c-4.867,0-7.501,3.008-7.501,9.09c0.243,3.408,0.165,6.293,0.165,8.725v9.856
		c1,33.096,1.174,49.644,1.66,49.644c0,3.529,3.264,5.84,9.591,6.935l3.7-0.365l3.675,0.365c1.947-0.242,2.679-0.607,2.679-1.095
		c3.224,0,5.694-3.285,6.694-9.856V56.481l-0.111-2.555C163.132,53.925,163.507,53.804,163.507,53.56z M148.176,35.674
		c1.217,0,1.947,0.488,2.19,1.46c-0.913,0.73-1.643,1.095-2.19,1.095c-1.217,0-1.947-0.365-2.19-1.095
		C146.473,36.162,147.203,35.674,148.176,35.674z M140.876,36.404h0.73l0.73,0.365c0,0.488-0.243,0.73-0.73,0.73h-0.73V36.404z
		 M145.986,109h-0.73c-2.494,0-4.076-3.081-4.745-9.651c0-2.615,0.366-4.703,0.61-6.468c-0.243-11.193-0.12-21.069-0.12-29.83
		V45.895c0-1.702,0.362-2.895,2.066-2.895h5.475l0.865,0.9c1.217,0,1.594,9.904,1.594,29.372v9.491
		c0,2.738,0.109,6.266-0.134,10.586c0.243,0.243,0.602,2.108,0.845,6.001C150.92,105.919,149.089,109,145.986,109z M158.032,44
		c-0.182,1.218-0.548,2-1.095,2h-0.73l-0.365-2l0.365-2h1.095C157.302,43,157.545,43.21,158.032,44z M158,51.735V52.1
		c0,1.218-0.333,1.9-1.063,1.9h-0.73c0,0-0.122-0.464-0.365-0.952c0-1.217,0.365-2.048,1.095-2.048h0.365
		C157.788,51,158,51.248,158,51.735z M152.922,38.392c0-1.46,0.852-2.392,2.555-2.392h0.73l0.73,0.567
		c0,0.608-0.487,1.948-1.46,4.015C154.321,40.582,153.469,39.852,152.922,38.392z M156.572,109.044l-0.73-0.365
		c0-0.425,0.243-0.669,0.73-0.73l0.73,0.365C157.302,108.802,157.058,109.044,156.572,109.044z M156.937,102.839
		c-0.365,0-0.73-0.446-1.095-1.419c0.487-0.972,0.852-1.419,1.095-1.419h0.73c0,0,0.122,0.568,0.365,1.054
		C157.849,102.272,157.484,102.839,156.937,102.839z M156.937,94h-0.73c0-1-0.122-0.647-0.365-1.135
		c0.183-1.217,0.548-1.865,1.095-1.865h0.73c0,0,0.122,0.648,0.365,1.135C157.849,93.353,157.484,94,156.937,94z M157.667,86h-0.73
		c-0.426,0-0.937-0.194-0.937-0.682v-1.095c1-0.73,0.937-1.223,1.302-1.223h0.73c0,0,0.122,0.648,0.365,1.135
		C157.91,84.926,157.667,85,157.667,86z M156.937,78.382l-1.095-0.73c0-1.702,0.608-2.677,1.825-2.92
		c0.243,0,0.608,0.123,1.095,0.365C158.214,77.287,157.606,78.382,156.937,78.382z M156.937,70.352c-0.365,0-0.73-0.837-1.095-1.811
		c0-0.972,0.487-1.541,1.46-2.541h0.73l0.73,0.716C158.214,68.906,157.606,70.352,156.937,70.352z M156.937,62.321
		c-0.365,0-0.73-0.822-1.095-1.795c0.487-1.46,0.973-2.525,1.46-2.525h0.73l0.73,0.7C158.154,60.891,157.545,62.321,156.937,62.321z
		"/>
	<path d="M189.982,35.674c0-5.9-1.982-12.835-6.119-20.806C178.996,8.48,174.05,4.829,168.94,3.917
		c-7.057-1.702-12.754-2.555-17.135-2.555c-9.977,0.305-14.955,0.913-14.955,1.825c-8.943,0.548-14.413,1.278-16.421,2.19
		l-7.663,3.65c-5.354,4.928-9.003,9.552-10.95,13.871c-0.547,2.981-1.642,6.876-3.284,11.681c0,0.243,0.122,0.608,0.365,1.095
		c-0.243,4.198-0.179,6.631-0.179,7.301c0,9.552,0.281,22.327,1.281,38.328v0.365c-1,5.475-1,8.396-1,8.761v11.681
		c0,1.766,0.314,5.536,1.044,11.316c0.73,9.979,1.556,14.966,2.53,14.966c0.974,4.015,2.056,6.693,3.272,8.031
		c4.198,5.11,7.355,7.25,9.484,7.25c0,1.278,5.104,3.329,15.325,4.329h0.73c3.833,0,7.726,0.539,11.681,0.781
		c0.182,0,0.913-0.012,2.19-0.256l4.38,0.474h4.38c3.224,0,7.24-0.753,12.046-2.457c7.301-3.162,11.924-7.128,13.871-11.997
		c2.129-2.615,4.076-5.39,5.84-8.371c1.095-3.345,2.14-6.376,3.478-9.113c1.46-12.168,2.748-23.956,2.748-35.395V51.005
		C192,40.784,190.712,35.674,189.982,35.674z M107,23.263c0-1.885,1.242-2.98,3.432-3.285l0.803,0.051
		c0,0.913-0.9,1.971-2.847,2.971H107V23.263z M107.658,28.009c0,0.488,0.243,0.73,0.73,0.73c0,1.703-0.852,2.92-2.555,3.65
		l-1.095-0.73C104.738,30.259,105.711,29.044,107.658,28.009z M106.198,77h-1.095c-0.426,0-1.103,0.41-1.103-0.078v-2.555
		c0-2.25,0.844-3.833,1.818-4.745c1.217,0.365,2.182,1.218,2.182,2.555v1.095L106.198,77z M108,81v2.493
		c0,2.068-1.072,3.507-2.532,4.507h-0.365c-0.365,0-0.73-0.519-1.095-1.492c0-2.859,0.973-4.508,2.92-5.508H108z M104,64.876v-3.65
		c0-1.217,0.738-2.226,1.468-2.226h1.46c0,0,0.122,1.053,0.365,1.478c-0.426,3.65-1.342,5.484-2.377,5.484L104,64.876z M104,39.689
		c0-1.825,0.738-2.689,1.468-3.689h0.73l0.73,0.445c-0.182,3.65-0.669,5.555-1.46,5.555H104V39.689z M105.468,47h0.365
		c0.487,0,1.167,0.598,1.167,1.085V52.1c0,1.886-0.923,2.9-1.897,2.9h-0.365c-0.608,0-1.095-0.836-1.46-2.54
		C103.521,48.81,104.251,47,105.468,47z M106.916,91.888c0.73,0,1.084,0.243,1.084,0.73v1.825c0,1.278-0.84,2.738-2.544,4.38
		c-0.973-0.607-1.46-1.095-1.46-1.46C104.179,93.713,105.152,91.888,106.916,91.888z M104,107.949v-2.555
		c0-1.702,1.148-3.042,3.095-4.015c0.487,0,0.905,0.243,0.905,0.73v2.555c0,0.426-0.585,1.336-1.802,4.336h-0.73
		C104.738,108,104,108.314,104,107.949z M105,118.535v-3.285c0-1.337,0.527-2.797,2.23-4.38c0.73,0.365,0.77,0.73,0.77,1.095v2.92
		c0,0.488-0.342,2.115-1.802,4.115h-0.365C105.103,119,105,118.9,105,118.535z M120,138.976c-1,0.73-1.026,1.024-1.391,1.024h-0.73
		l-1.825-0.329c-1.156-2.615-2.251-4.057-3.285-4.362c-2.19,0-3.285-1.816-3.285-5.466c-2.19-2.555-3.285-4.132-3.285-4.741
		c0.487-2.008,0.73-3.343,0.73-4.013c1.947,0,2.92,2.191,2.92,6.572c3.164,2.616,4.893,5.172,4.893,7.666
		c3.407,0.73,5.258,1.461,5.258,2.191V138.976z M125.18,143h-1.46c-0.973-1-1.719-1.103-1.719-1.468v-0.365
		c0-0.487,0.86-0.972,2.32-1.46c2.19,0.488,3.35,1.222,3.35,2.194C126.757,142.631,125.97,143,125.18,143z M136,142.262
		c0,0.67-1.222,1.278-3.412,1.825c-0.973-0.365-1.588-0.73-1.588-1.095v-0.365c0-0.607,1.115-1.627,2.575-1.627h0.73l1.695,0.897
		V142.262z M143.066,144h-1.46c-0.426,0-0.606,0.575-0.606,0.087v-1.095c0-0.73,1.032-0.992,2.796-0.992h0.365l0.73-0.095
		C144.891,142.878,144.283,144,143.066,144z M154,142.992c-1,1.46-2.561,2.19-4.325,2.19c-0.426,0-0.675-0.242-0.675-0.73v-0.365
		c2-1.702,2.804-2.555,3.96-2.555c0.73,0.365,1.04,0.73,1.04,1.095V142.992z M161.682,142.992h-1.825v-1.095
		c0.243,0,0.608-0.122,1.095-0.365c0.487,0,0.73,0.243,0.73,0.73V142.992z M188,75.462c-1,12.899-1.843,19.59-1.843,20.076
		c-0.122,12.654-0.861,18.981-2.199,18.981c0,5.233-2.681,10.571-8.035,16.533c-5.719,4.138-11.077,5.947-16.066,5.947H137.59
		c-1.217,0-5.354-0.594-12.411-2.297c-3.894-2.067-7.259-5.103-9.693-9.362c-2.19-6.753-3.487-11.246-3.487-13.742V92.618
		c0-1.337-0.122-3.042-0.365-5.11c0.243-0.06,0.365-1.278,0.365-3.65v-1.46c0-1.885,0.08-3.589-0.163-5.11l0.466-2.555
		l-0.315-12.411c0-1.217,0.147-2.677,0.39-4.38l-0.717-13.506c0.365-10.463,0.98-15.696,1.832-15.696
		c1.095-3.65,2.437-6.813,4.019-9.491c5.232-6.57,9.614-9.856,13.142-9.856c0-1.46,7.545-2.19,22.632-2.19
		c10.464,0.123,15.697,0.853,15.697,2.19c2.798,0,6.206,2.313,10.221,6.935c2.008,3.894,3.121,5.84,3.303,5.84
		c2.19,7.179,3.493,18.495,5.493,33.947V75.462z"/>
	<path d="M243.63,34.214c1.703,0,3.164,0.853,4.38,2.555c0,7.483,0.852,12.107,2.555,13.871c0,1.886,3.407,3.468,10.221,4.745
		c0.73,0,1.095-0.122,1.095-0.365c8.761-0.79,13.141-1.885,13.141-3.285c4.867-5.962,7.301-10.951,7.301-14.966
		c-1.095-16.061-2.434-24.092-4.015-24.092c-2.981-7.301-10.281-10.951-21.902-10.951l-4.38,0.184
		C248.558,1.424,246.125,1,244.726,1h-6.57c-15.088,2-22.632,3.101-22.632,4.196c-8.213,3.833-13.445,8.912-15.696,15.057
		c-1.947,3.833-2.92,8.502-2.92,13.916l0.412,2.213C197.075,38.512,197,40.36,197,41.879V53.56c0,0.853,0.684,3.164,2.144,6.935
		c0.183,0.791,1.376,2.616,3.627,5.475c0,1.156,3.274,4.321,9.844,9.491c10.647,8.456,18.031,13.446,21.985,14.966
		c7.544,4.745,11.4,9.249,11.4,13.506v8.031c0,1.46-0.909,2.035-2.37,2.035h-4.38c-3.103,0-5.254-2.113-6.775-6.493
		c0.243,0,0.525-0.044,0.525-0.288v-1.46c-1-5.597-2.145-8.759-3.24-8.759h-1.46c-3.042,0-8.031-0.67-14.966-0.913
		c-5.901,1.825-9.065,3.376-9.491,4.471c-4.867,1.886-7.301,5.947-7.301,12.091c0,14.359,3.042,23.759,9.126,28.626
		c2.433,2.92,8.396,4.725,17.886,6.725h0.365c0.669,0,1.399-0.009,2.19-0.496c2.92,0.73,7.666,1.335,14.236,1.577l2.19-1.27
		c3.164,0.243,5.719,0.19,7.666,0.19h5.11c6.084,0,9.126-0.921,9.126-1.592c4.015,0,7.991-3.168,12.249-9.739
		c3.65-10.89,5.314-17.344,5.314-19.595v-14.236c-1-11.681-2.393-18.858-3.854-21.537c-3.042-4.928-6.976-9.185-11.965-12.776
		l-10.18-7.3c-2.92-0.972-4.36-1.702-4.36-2.19c-3.65-1.764-5.465-2.859-5.465-3.285c-8.274-3.103-12.406-8.09-12.406-14.966
		l0.368-1.46l-0.729-2.555C233.409,35.735,236.817,34.884,243.63,34.214z M247,29h-1.909c-0.426,0-1.091-0.139-1.091-0.626v-0.365
		c1,0,1.013-0.122,1.5-0.365c0.487,0.243,0.5,0.365,1.5,0.365V29z M249.836,30.917c0-1.217,0.487-1.819,1.947-1.819
		c0.973,0.608,1.217,1.101,1.217,1.466v0.365c0,0.73-0.244,1.071-0.609,1.071h-1.095L249.836,30.917z M253.121,38.594h-0.365
		c0-0.242-0.122-0.607-0.365-1.095c0-0.425,0.243-0.669,0.73-0.73c0.487,0,0.73,0.243,0.73,0.73v0.365
		C253.851,38.352,253.608,38.594,253.121,38.594z M260,49.545c0,0-0.58,0.123-1.067,0.365c-1.825,0-3.514-2.117-5.096-6.01
		c0-0.425,0.258-0.9,0.744-0.9h0.365l0.702,0.535c0,2.678,1.352,4.308,4.352,4.55V49.545z M267.357,49.545h-1.825v-0.73h1.825
		V49.545z M203.113,26.183c0-0.425,0.243-0.669,0.73-0.73h0.365v1.095l-0.365,0.73c-0.426,0-0.669-0.242-0.73-0.73V26.183z
		 M202.009,33.484c1-0.73,1.104-1.116,1.469-1.116h0.531v1.481c0,0.488-0.045,0.519-0.531,0.519h-0.365
		c-0.426,0-1.104-0.031-1.104-0.519V33.484z M203.478,39h0.73c0,0,0.122,0.466,0.365,0.952c0,0.973-0.487,2.048-1.46,2.048h-0.73
		l-0.73-0.222C202.261,39.831,202.869,39,203.478,39z M202.383,51c-0.426,0-0.383,0.128-0.383-0.36v-1.46
		c1-1.217,1.347-1.825,1.651-1.825c0.365,0,0.643,0.303,1.008,1.275c-0.487,1.521-1.182,2.37-1.912,2.37H202.383z M204.208,59
		C203.66,59,203,58.306,203,56.846v-1.095c0-0.425,0.356-0.751,0.843-0.751h0.365c0.73,0,1.095,0.905,1.095,2.182L204.938,59
		H204.208z M208,62.321c0,0.365-0.527,0.73-1.5,1.095l-1.5-1.46V60h1.033c1.217,0,1.967,0.861,1.967,1.591V62.321z M213,68h-1.127
		c-0.73-1-0.873-0.569-0.873-0.934v-1.095c0,0,0.331-0.122,0.817-0.365c0.973,0.73,1.183,1.218,1.183,1.46V68z M224,77h-0.446
		c-1.703,0-2.925-1.134-3.412-3.324c-2.677-0.365-4.142-1.011-4.142-1.864V70h1.714c1.278,1,1.866,1.697,2.048,2.548
		c2.92,1.643,4.238,3.096,4.238,3.644V77z M230,81.302c-2,0-3.71-0.73-4.136-2.19l0.973-0.73c1.886,0,3.163,0.853,3.163,2.555
		V81.302z M236,83.858c0,0.123-0.236,0.488-0.722,1.095c-1.339,0-3.278-0.73-3.278-2.19V82h2.14c0.973,0,1.86,1.127,1.86,1.493
		V83.858z M241,87.508c0,0.123,0.034,0.488-0.452,1.095C239.331,88.42,239,88.055,239,87.508v-0.73c0-0.365,0.209-0.73,1.183-1.095
		l0.817,1.46V87.508z M244,90.063V89h1.456c1.156,1,2.01,2.357,2.557,3.999C245.64,92.999,244,92.253,244,90.063z M201,110.504
		v-0.73c1-0.972,1.017-1.774,1.383-1.774h1.095c0,1-0.57,2.408-1.786,3.077C201.265,111.077,201,110.992,201,110.504z
		 M201.287,116.71c0.608-0.972,1.095-1.46,1.46-1.46c0.487,0,0.73,0.243,0.73,0.73c-0.122,0.488-0.73,0.973-1.825,1.46
		L201.287,116.71z M202,123.28v-0.365c0-1.217,0.892-1.947,1.865-2.19c0,0.123,0.135,0.488,1.135,1.095v0.73l-0.792,1.45h-0.73
		C202.748,124,202,123.645,202,123.28z M218,140.437c0,0.123-0.447,0.73-1.421,1.825c-1.582,0-3.022-1.337-4.361-4.015
		c-3.407-0.182-5.101-1.155-5.101-2.92c0.243,0,0.37-0.122,0.37-0.365c0-0.548-0.358-1.034-0.601-1.46l-3.887-2.92v-0.73
		c0-1.46,1.208-2.851,2.668-2.851h0.365c0.73,0,1.095,1.548,1.095,3.981c3.59,3.346,5.497,5.581,5.801,6.371
		c3.407,0.853,5.071,1.625,5.071,1.99V140.437z M228,141.897c0,0.608-1.661,0.973-4.825,1.095c-0.73-0.365-1.175-0.73-1.175-1.095
		v-0.365c0-0.425-0.028-1.532,0.459-1.532h3.285l2.256,1.167V141.897z M234,142h-1.32c-0.426,0-0.669-0.012-0.73-0.5
		c0-0.425,0.243-0.5,0.73-0.5h0.73c0.487,0,0.59,0.41,0.59,0.897V142z M244,142.262c0,0.365-0.489,0.73-1.462,1.095
		c-0.974-0.365-1.461-0.73-1.461-1.095c0.122-0.487,0.732-0.972,1.827-1.46c0.487,0.243,1.097,0.365,1.097,0.365V142.262z
		 M252,142.627L250.201,143H249v-0.738c0-0.73,0.471-1.262,0.836-1.262h1.46c0.487,0,0.704,0.41,0.704,0.897V142.627z M260,141.897
		c0,0.488-0.519,0.853-1.979,1.095c-0.365,0-0.746-0.643-1.355-1.131c0.243-0.972,1.079-1.861,2.296-1.861h0.73
		c0.487,0,0.308,1.045,0.308,1.532V141.897z M269,139.342c0,0.548-1,1.278-3,2.19v-0.73c1-1.702,1.926-2.555,2.595-2.555l0.405,0.73
		V139.342z M228.299,39.689c1.46,7.971,3.164,12.593,5.11,13.871c4.198,3.043,13.688,8.884,28.472,17.521
		c8.517,6.753,12.669,11.863,12.669,15.331c1.095,0,2.449,5.719,2.449,17.156v4.015c0,0.365,0,3.285-1,8.761v4.015
		c0,1.703-0.002,3.043-0.489,4.015c-1.825,4.503-4.503,7.666-8.275,9.491c-8.396,1.948-15.879,3.164-22.571,3.65
		c-2.677-0.242-4.107-0.562-4.35-0.806c-1.643,0.243-2.951,0.289-3.985,0.289h-4.015c-4.989-1-7.666-1.384-8.031-1.749
		c-4.137,0-7.216-1.299-9.65-3.977c-1.947,0-3.634-4.829-5.634-14.563v-5.84c0-1.278-0.328-3.345-0.571-6.205
		c1.278-1.702,2.391-2.792,3.547-2.792c2.494,0.243,4.338,0.128,5.738,0.128h8.396c0.973,1,1.891,1.569,1.891,1.934v2.555
		c0,4.138,1.001,7.301,3.435,9.491c0.122,1.218,3.178,2.19,9.383,2.92c6.692-0.487,10.167-0.972,10.532-1.46
		c4.137-3.162,6.179-6.327,6.179-9.491c0-0.242-0.135-0.607-0.379-1.095l0.358-2.555c0-0.79-0.125-2.859-0.368-6.205
		c0-3.285-3.53-7.787-10.587-13.506c-9.552-6.145-15.187-10.16-17.316-12.046C215.609,64.634,209,56.846,209,49.18V44.8
		c0-1.582-0.084-3.162,0.159-4.745l-0.444-1.825c0.243-3.954,0.285-7.483,0.285-10.586v-0.365c0-0.607,0.585-2.19,1.802-4.745
		c0-6.57,2.665-10.951,8.019-13.141c2.008-1.46,4.557-2.19,7.66-2.19c8.517,0,16.302-0.122,23.359-0.365
		c4.684,0.243,9.185,0.365,13.504,0.365c1.764,0,4.199,0.973,7.788,2.92c3.407,4.441,4.868,9.431,4.868,14.966v14.966
		c0,1.825-1.951,2.946-6.818,3.946h-4.015c-2.008,0-3.954-1.182-5.84-3.25c0-7.24-1.339-12.402-4.015-15.628
		C253.79,24.515,250.505,23,245.456,23h-0.73c-4.259,0-6.814,1.044-7.666,1.044c-6.084,2.131-9.126,6.12-9.126,12.02
		C227.934,37.22,228.056,38.412,228.299,39.689z M251,97.729c0,0.488,0.053,0.271-0.434,0.271h-1.095L249,96.633v-2.19
		c2,0,2,0.853,2,2.555V97.729z M251.661,102.474h0.365c0.487,0,0.73,0.243,0.73,0.73c0,0.488-0.243,0.73-0.73,0.73h-1.095v-0.73
		C250.931,102.779,251.174,102.535,251.661,102.474z"/>
	<path d="M376.591,132.771c0-0.425,0.009-1.885,0.252-4.38c-0.487-2.615-0.843-4.319-0.843-5.11v-5.475
		c0-0.79-0.009-1.399-0.252-1.825c-2.433-3.407-5.297-5.228-8.704-5.228c-3.407,0.243-6.271,0.248-8.704,0.248h-22.267
		c-4.563,0-7.361-0.248-8.396-0.978l0.365-3.592c-0.243-18.555-0.365-30.085-0.365-34.648c0-1.095-0.243-3.148-0.73-6.191
		c-0.243-21.231-0.365-33.514-0.365-36.86c0-2.067,0.122-9.364,0.365-21.898c0-3.042-2.92-4.865-8.761-5.474l-1.825,0.366
		c-3.954-0.73-6.51-1.095-7.666-1.095c-8.7,0-14.175,3.529-16.426,10.586c-2.19,0-3.285,6.328-3.285,18.981l0.365,3.285l-0.54,0.73
		c0.243,3.408,0.19,6.328,0.19,8.761V52.1c0,1.948,0.297,4.259,0.54,6.935c-0.243,0.426-0.278,1.036-0.278,1.825l0.409,5.11
		l-0.343,2.19c0,0.243,0.093,0.608,0.336,1.095C289.907,80.025,290,88.42,290,94.443v25.552c0,2.861,0.283,4.806,0.77,5.84
		l-0.71,2.92c0.973,4.441,1.592,7.555,1.835,10.17c0,6.328,3.904,9.075,11.691,9.075h28.472c1.703,0,4.38,0.539,8.031,0.781
		c0-0.304,0.973-0.34,2.92-0.522c1.217,0.488,2.068,0.6,2.555,0.6c1.947-0.487,3.164-0.86,3.65-0.86h12.411
		c6.084,0,9.126-1.104,9.126-2.322c2.355,0,4.53-3.363,6.526-10.317c-0.071-0.466-0.106-0.822-0.122-1.21
		C377.033,133.705,376.849,133.285,376.591,132.771z M295,107.584c0-2.432,0.981-3.584,1.651-3.584h0.73l0.619,1.759v0.73
		c0,1.338-0.831,2.19-2.048,2.555c-0.426,0-0.952-0.242-0.952-0.73V107.584z M294.825,95.865c0-1.217,0.608-1.865,1.825-2.865H297
		v4.729c0,0.73-0.349,0.271-0.714,0.271h-1.095L294.825,95.865z M297,85.683c0,1.703,0,2.555-2,2.555v-3.285
		c1-1.217,1.346-1.953,1.651-1.953H297V85.683z M295.413,15.598L296,16.693v2.555c0,1.948-0.566,2.752-1.175,2.752h-0.73
		l-0.436-1.741C293.659,17.097,294.196,15.598,295.413,15.598z M294,29.469c0-1.46,0.77-2.432,2.23-2.92
		c0.487,0,0.77,0.243,0.77,0.73v2.19c0,1.338-0.958,1.531-2.175,2.531h-0.73L294,30.564V29.469z M294,39.689
		c0-1.337,0.217-2.689,1.191-2.689h0.73c0.487,0,1.079,0.378,1.079,0.864v1.095c-1,2.678-1.323,4.041-2.175,4.041h-0.365
		c-0.426,0-0.46-0.267-0.46-0.755V39.689z M294,50.275c0-1.217,0.095-2.275,0.825-2.275h0.73c0.487,0,0.852,1.492,1.095,4.413
		c-0.73,1.46-1.095,1.587-1.095,2.587h-1.46L294,53.195V50.275z M294,65.606v-2.92c0-1.337,0.331-2.19,1.548-2.555
		c0.487,0,0.452,0.243,0.452,0.73v3.65c0,1.218-0.079,1.489-0.809,1.489h-0.365C294.095,66,294,65.971,294,65.606z M294,76.557
		v-2.19c0-1.337,0.582-2.367,1.556-3.367H297v3.002l0.19,1.634c-0.852,1.703-1.635,2.364-2,2.364h-0.73L294,76.557z M297.016,113.79
		c0.426,0,0.791,0.73,1.095,2.19c0,1.401-0.73,2.373-2.19,2.92c-0.243,0-0.608-0.122-1.095-0.365
		C294.825,116.527,295.556,114.946,297.016,113.79z M296,128.391v-1.095c0-2.432,0.569-3.65,1.238-3.65
		c0.487,0,0.741,0.622,0.984,2.082c0,1.218-0.355,2.272-0.841,4.272h-1.46L296,128.391z M297.746,139h-0.365
		c-0.73,0-1.381-0.389-1.381-0.754v-0.73c0-1.217,0.508-1.947,1.238-2.19c0.487,0.123,1.045,0.559,1.531,1.654
		C298.526,138.441,298.232,139,297.746,139z M305,143.357c0,0.488-1.087,0.853-2.547,1.095c-0.73-0.365-1.453-0.73-1.453-1.095
		v-0.365c0-0.365,0.844-0.73,1.818-1.095l2.182,0.365V143.357z M311.617,144h-1.46c-0.426,0-1.157,0.21-1.157-0.278v-0.365
		c0-0.425,0.67-1.357,1.157-1.357h1.825c0.487,0,0.73,0.331,0.73,0.817C312.347,143.548,311.982,144,311.617,144z M322,143.722
		L319.282,144h-1.095c-0.365,0-0.73-0.261-1.095-1.234c1.034-0.73,2.089-0.982,3.002-0.982l1.906,0.478V143.722z M331,143.357
		c0,0.73-0.767,0.643-1.132,0.643h-2.19c-0.73,0-1.095-0.504-1.095-0.869c0-0.669,0.87-1.042,2.574-1.347l1.844,0.478V143.357z
		 M339.724,144h-3.285c-0.426,0-0.438,0.21-0.438-0.278v-1.095c0,0,1.193-0.365,3.504-1.095c1.095,0.488,1.631,0.747,1.752,1.234
		C340.648,143.739,340.089,144,339.724,144z M347.06,144.452c-0.487-0.242-1.06-0.365-1.06-0.365v-1.095
		c0-0.669,1.181-1.155,3.615-1.46c0.73,0,1.095,0.243,1.095,0.73C350.71,143.053,349.493,143.783,347.06,144.452z M359,142.992
		c0,0.73-0.842,1.008-2.12,1.008h-0.73l-1.095-0.687c0-0.73,0.938-1.438,2.885-2.168c0.73,0.548,1.06,0.934,1.06,1.117V142.992z
		 M364.685,143.821c-0.852-0.242-0.685-0.099-1.685-0.099v-1.095c0-0.607,1.18-1.627,2.641-1.627h1.095
		C366.736,141,365.902,142.361,364.685,143.821z M372,132.041c0,0.67-0.138,1.007-0.625,1.797c0,1.703-3.666,2.162-11.21,2.162
		h-40.153c-3.589,0-8.457,0.516-14.601,0.758c-1.399-0.852-2.74-2.601-3.531-5.644c0.243-3.162,0.12-5.521,0.12-7.469v-14.601
		c0-5.475,0-8.396,0-8.761v-6.57c0-1.337-0.241-3.042-0.485-5.11l0.107-0.73c-0.243-4.075-0.623-7.24-0.623-9.491V15.963
		l-0.365-4.38c0.243,0,0.365-0.852,0.365-2.555V8.662l-0.167-0.966L302.491,6h16.426c1.46,0,2.434,0.966,2.92,2.426
		c-0.487,11.012-0.696,19.647-0.696,25.67c0,6.449,0.859,24.698,1.859,54.507v0.73c0,0.365,0,3.285,1,8.761v4.015
		c0,2.068-0.412,4.634-0.899,7.676c0,4.138,1.291,6.216,4.212,6.216h2.555c3.833,0,6.388,0.061,7.666,0.548
		c2.494-0.242,4.441-0.548,5.84-0.548h22.632c1.034,0,2.267,0.537,3.91,1.268c1.46,0,2.085,4.066,2.085,11.853V132.041z"/>
	<path d="M417.657,11.489c0-5.597-2.312-8.489-6.936-8.489h-5.475c-2.555,0-5.232-0.028-8.031-0.272
		c-1.095,0.243-3.042,0.412-5.84,0.412c-1.764,0-4.254,1.971-7.6,5.864C380.246,14.114,378,19.491,378,25.088v6.935
		c0,1.036-0.187,2.373-0.431,4.015c0.243,0.365,0.263,1.095,0.263,2.19c0,0.123,0.168,1.948-0.832,5.475v16.426
		c0,1.218-0.052,3.043-0.296,5.475c0.243,0,0.4,0.365,0.4,1.095c-0.243,1.278-0.348,2.008-0.348,2.19c0,0.305,0.13,1.521,0.374,3.65
		c0,0.791-0.117,1.401-0.361,1.825c0.243,2.068,0.367,3.773,0.367,5.11c0,10.647,0.175,18.557,0.662,23.727
		c-0.487,4.503-0.799,12.289-0.799,23.362v7.301c0,0.107,0.08,0.23,0.085,0.344c0.108,0.398,0.202,0.772,0.202,1.117
		c-0.015,0.052-0.013,0.1-0.028,0.152c0.274,1.802,0.967,4.086,2.061,7.05c0,3.773,3.902,5.472,11.69,6.472h2.19
		c0.547,0,1.034-0.023,1.46-0.266c0.426,0.243,0.912,0.414,1.46,0.414c1.764,0,4.441-0.217,8.031-0.705
		c2.555,0.243,4.015,0.377,4.38,0.377c0.122,0,0.608-0.115,1.46-0.359c4.137-1.643,6.668-6.872,7.155-15.693
		C416.903,117.863,417,105.577,417,95.903v-7.666c0-4.928-0.097-12.35,0.146-22.267c-0.243-0.425-0.475-0.913-0.475-1.46
		c0.487-2.494,0.675-7.97,0.675-16.426c0-6.57-0.149-16.426-0.392-29.567c0.487-3.407,0.838-5.399,1.081-5.887
		C417.792,12.144,417.657,11.732,417.657,11.489z M386.265,117.498c-0.913,2.433-1.754,3.621-2.545,3.621
		c0-0.242-0.72-0.394-0.72-0.394v-4.745c0-0.73,0.709-0.98,1.074-0.98h1.46C385.535,115,385.778,116.281,386.265,117.498z
		 M385,87.143c-1,0.973-1,1.46-3,1.46v-0.365c0-3.892,0.918-6.238,1.709-6.238h0.365c0.487,0,0.926,0.641,0.926,1.127V87.143z
		 M385,93.348v4.745c0,0.73-0.635,1.095-1,1.095c-0.73-0.365-1-0.73-1-1.095v-2.555c0-1.825,0.344-3.538,1.074-3.538h0.365
		C384.926,92,385,92.861,385,93.348z M384.439,110h-0.365c-0.426,0-1.074,0.262-1.074-0.226v-4.745c1-0.73,1.074-1.029,1.439-1.029
		h1.095c0,0,0.122,0.75,0.365,1.175C385.595,108.583,385.109,110,384.439,110z M383,20.708L383.709,18h0.73
		c0.487,0,0.561,0.396,0.561,0.883v1.095c0,1.218-0.392,1.948-1.365,2.19L383,21.073V20.708z M384.439,25h0.365
		c0.487,0,1.196,0.697,1.196,1.183v0.365c0,3.408-0.952,4.452-1.926,4.452h-0.365l-0.73-0.262C383.223,26.845,383.709,25,384.439,25
		z M383,40.054c0-1.825,0.452-2.797,1.182-2.92c0.487,0,0.818,0.243,0.818,0.73v4.38L384.439,44h-0.73
		c-0.426,0-0.709-0.172-0.709-0.66V40.054z M384.172,48.815c0.487,0,0.828,0.243,0.828,0.73v5.84c-1,0.973-1.291,0.615-1.656,0.615
		h-0.73c0,0-0.073-0.184-0.316-0.672C382.663,50.705,383.32,48.815,384.172,48.815z M383.344,61h0.73
		c0.487,0,0.926,0.834,0.926,1.321v3.65c0,1.338-0.926,2.029-2.386,3.029h-0.365l-0.73-0.532C381.702,65.243,382.31,63,383.344,61z
		 M384.172,73.272L385,74.367v2.19c0,0.608-1.071,1.218-2.653,1.825c-0.243,0-0.487-0.365-0.73-1.095
		C382.408,74.61,383.26,73.272,384.172,73.272z M381.884,129.83c0.487-3.162,1.132-4.735,2.105-4.735
		c0.73,0.365,1.01,0.74,1.01,1.105v4.38c0,0.973-0.926,1.419-1.291,1.419h-0.365C382.858,132,382.371,131.29,381.884,129.83z
		 M384.804,141h-0.73c-0.426,0-1.074,0.29-1.074-0.198v-4.015c1-0.607,0.902-0.972,0.902-1.095c2.19,0.365,3.371,1.073,3.371,2.654
		C385.996,140.294,385.23,141,384.804,141z M393,143.722c0,0.73-0.53,0.278-0.895,0.278h-0.73l-1.095-0.635
		c0.365-0.972,0.73-1.365,1.095-1.365h1.095c0.487,0,0.53,0.87,0.53,1.357V143.722z M400.663,144.817L399,144.452v-0.73
		c0-0.425-0.081-0.722,0.405-0.722h1.46c0.487,0,0.811,0.239,0.811,0.726C401.312,144.456,401.028,144.817,400.663,144.817z
		 M408.166,144.087h-0.73v-0.73h0.73V144.087z M412.911,53.925c-0.243,3.591-0.365,6.023-0.365,7.301
		c0.243,0.426,0.504,1.035,0.504,1.825L411,95.903v4.015c1,13.871,2,23.605,2,29.202v2.92c-1,3.65-3.13,4.959-5.564,4.959h-8.031
		c-5.84,0-8.765-1.079-8.765-3.757l0.36-1.932v-17.886c0-1.034-0.117-2.373-0.36-4.015c0.243-0.487,0.367-0.852,0.367-1.095
		c-1.217-25.004-1.824-39.727-1.824-44.168c0-0.73-0.213-1.582-0.457-2.555c0.243-0.425,0.273-1.034,0.273-1.825v-7.3
		c0-0.548-0.122-1.034-0.365-1.46c0.243-0.425,0.365-0.913,0.365-1.46v-7.301c0-0.607,0.336-1.702,0.822-3.285
		c0-0.79,0.102-2.859-0.141-6.205c0.73-3.527,1.319-5.718,1.319-6.57v-5.11c0-1.155,0.122-2.373,0.365-3.65
		C391.122,16.51,391,15.415,391,14.138v-3.285C391,8.662,392.713,7,396.85,7h5.11c0.852,0,1.947,0.123,3.285,0.365
		C405.55,7.123,406.402,7,407.801,7h0.365c2.373,0,3.954,1.257,4.745,3.204c0,1.338-0.122,4.887-0.365,10.362
		C412.79,40.401,412.911,51.614,412.911,53.925z"/>
	<path d="M377.154,134.21c0.016,0.388,0.051,0.803,0.122,1.269c0.015-0.052,0.03-0.1,0.045-0.152
		C377.321,134.982,377.263,134.608,377.154,134.21z"/>
	<path d="M515.194,96.633c0-6.875-3.566-14.054-10.623-21.537c-4.624-2.92-6.954-4.745-6.954-5.475
		c2.677-1.702,5.428-4.015,8.104-6.935C509.858,56.603,512,50.275,512,43.705v-8.031c-2-8.517-4.464-14.236-7.019-17.156
		c-3.711-6.448-9.593-11.193-17.563-14.236c-6.996-2.19-13.344-3.285-19.002-3.285c-12.107,0-19.904,0.488-23.372,1.46
		c-3.955,0-8.462,3.65-13.511,10.951c-2.19,6.996-3.288,12.593-3.288,16.791c0,0.183,0.12,1.156,0.364,2.92
		c0,0.73-0.122,1.583-0.366,2.555l0.73,25.187c-0.243,0.973-0.365,1.825-0.365,2.555l0.561,1.825
		c-0.243,3.285-0.169,6.084-0.169,8.396v4.38c0,5.354,0.412,13.994,1.629,25.917c-0.243,0-0.679,0.123-0.679,0.365
		c0.243,1.643,0.051,2.981,0.051,4.015v4.745c0,5.233,0.095,12.534-0.149,21.902l0.473,1.825c-0.243,0.488-0.311,0.802-0.311,1.044
		c0,6.814,1.392,10.17,4.069,10.17h4.745c7.726,0,14.662,1,20.807,1h7.666c1.338,0,6.205-0.266,14.601-0.996
		c5.293-1.702,8.213-2.506,8.76-2.506c3.346-1.702,5.293-2.531,5.84-2.531c8.517-5.78,12.852-10.148,12.852-13.129
		c3.224-6.813,5.646-13.615,6.646-20.429V99.189C516,97.486,515.681,96.633,515.194,96.633z M436.638,88.238
		c0.243,0,0.608-0.281,1.095-0.039c-0.73,4.138-1.46,5.801-2.19,5.801h-0.365c-0.365,0-0.73-0.083-1.095-1.056
		C434.083,90.024,434.935,88.726,436.638,88.238z M434,84.223v-3.285c0-1.52,1.148-2.738,3.095-3.65c0.487,0,0.905,0.243,0.905,0.73
		v2.555c0,1.401-1.119,2.428-2.822,4.428h-0.365C434.387,85,434,84.711,434,84.223z M438,99.554v1.46c-1,2.92-1.939,4.38-2.913,4.38
		L434,104.299v-2.555c0-1.337,1.178-2.744,2.638-3.744h0.365C437.49,98,438,99.067,438,99.554z M437,127.661
		c0,3.65-0.544,5.339-1.457,5.339h-0.365c-0.426,0-1.178-0.106-1.178-0.594v-2.19c0-1.947,1-2.92,3-2.92V127.661z M436.273,123
		h-0.73l-0.73-0.357c0-0.669,0.608-2.643,1.825-3.643h0.73l0.73,0.357C438.098,120.028,437.49,121,436.273,123z M438,111.235
		c0,0.73-0.51,1.765-1.727,3.765H435v-2.305c0-1.46,0.543-2.695,2.003-3.695h0.365c0.487,0,0.632,0.288,0.632,0.774V111.235z
		 M435.137,74.367c-0.73-0.365-1.137-0.73-1.137-1.095v-2.555c0-1.702,1.137-3.162,3.327-4.38c0,0.488,0.243,0.73,0.73,0.73
		C437.57,70.352,436.597,72.785,435.137,74.367z M434.954,63.416c-0.426,0-0.954-0.242-0.954-0.73v-5.475
		c1-1.155,1.969-2.211,3.368-3.211h0.365c0,0,0.01,0.571,0.253,1.058C437.378,60.656,436.292,63.416,434.954,63.416z M435.908,51
		h-0.73c-0.426,0-1.178,0.128-1.178-0.36v-5.11c0-1.52,1.421-3.53,3.368-3.53h0.365c0,0,0.122,1.641,0.365,3.77
		C438.098,46.865,437.368,48,435.908,51z M438,34.579c0,1.156-0.754,2.421-2.457,4.421h-0.73c-0.426,0-0.813-0.283-0.813-0.771
		v-1.825c0-2.067,1.088-3.892,3.278-5.475c0.487,0,0.722,0.243,0.722,0.73V34.579z M438,23.993c0,1.036-0.754,2.007-2.457,4.007
		h-0.73l-1.095-0.715c0-3.589,0.973-5.285,2.92-7.285h0.73c0.487,0,0.632,0.951,0.632,1.438V23.993z M441.018,142.262h-1.095v-1.095
		h1.095V142.262z M445.399,144.087l-1.095-0.813c0.365-1.034,0.973-2.273,1.825-2.273h1.46l0.73,0.448
		C448.319,141.813,447.346,142.75,445.399,144.087z M452.334,144h-0.73c-0.73,0-1.095-0.504-1.095-0.869
		c0-0.365,0.852-0.859,2.555-1.712c0.122,0,0.487,0.074,1.095,0.561C454.159,142.832,453.551,143,452.334,144z M458.905,144.368
		h-0.365c-0.426,0-0.531-0.158-0.531-0.646v-0.365c0-0.425,0.044-0.989,0.531-0.989h0.73c0.487,0,0.73,0.331,0.73,0.817
		C459.635,143.916,459.27,144.368,458.905,144.368z M465.11,144.817c-0.973-0.487-1.46-0.848-1.46-1.091
		c0-0.425,0.243-0.726,0.73-0.726h1.46c0.487,0,0.73,0.239,0.73,0.726C466.57,144.091,466.084,144.452,465.11,144.817z
		 M473.009,144.087l-1.328,0.281h-0.672v-0.646c0-0.365,0.392-0.73,1.365-1.095c0,0.243,0.635,0.365,0.635,0.365V144.087z
		 M508.548,118.9c-1.217,5.354-4.502,9.78-9.856,13.43c-2.19,1.583-7.666,2.67-16.426,4.67h-10.951c-8.456,0-16-0.046-22.632-0.289
		c-4.624,0-6.992-0.934-6.992-2.882c0.243-1.643,0.308-2.942,0.308-3.977V118.17c0-3.589,0.122-6.023,0.365-7.301
		c-0.243-2.555-0.365-5.352-0.365-8.396V68.891l0.365-2.555c-0.243,0-0.365-0.487-0.365-1.46v-5.84c0-1.399,0.178-3.345,0.422-5.84
		c-0.243-0.425-0.337-1.034-0.337-1.825l0.379-3.285l-0.358-2.555l0.369-1.825c0-0.182-0.12-0.913-0.363-2.19
		c0-0.852,0.123-3.407,0.366-7.666c0-1.155-0.361-2.373-0.604-3.65c0.243-2.312,0.126-4.622,0.126-6.935V9.757
		C442,7.567,446.129,6,453.429,6h20.076c4.259,0,8.838,1.209,13.827,3.156C500.474,16.092,507,27.036,507,41.514v2.19
		c-1,7.118-1.964,11.133-2.876,12.046c-2.008,4.806-6.123,8.456-12.389,10.951c-5.597,0.305-8.385,1.401-8.385,3.285
		c0,1.156,0.736,2.251,2.196,3.285c4.502,0,8.277,0.853,11.319,2.555c9.491,5.233,14.237,14.601,14.237,28.107
		C511.102,110.504,510.252,115.493,508.548,118.9z"/>
	<path d="M468.76,86.413c-3.164,0.973-4.745,2.555-4.745,4.745c0,2.251,0.122,4.321,0.365,6.205l-0.365,3.285
		c0,1.218,0.114,2.678,0.357,4.38c-0.243,2.738-0.373,5.901-0.373,9.491v3.65c0,1.886,2.935,2.83,8.776,3.83h1.095
		c7.787-2,11.681-2.887,11.681-4.288c1.764,0,3.346-4.091,4.745-12.365l-2.19-9.467C485.004,89.553,478.555,86.413,468.76,86.413z
		 M474,92.618c0-0.425,0.179-0.669,0.666-0.73c1.217,0,1.914,0.488,2.158,1.46c-0.243,0-0.317,0.123-0.317,0.365
		c-0.973-0.242-1.507-0.365-2.507-0.365V92.618z M478,111.235c0,3.894-1.578,5.84-4.255,5.84c-1.643,0-3.344-0.607-4.865-1.825
		c0.73-5.78,1.035-9.185,1.035-10.221c-0.487-1.46-0.76-3.467-0.76-5.657c0-1.217,0.335-2.372,1.065-2.372h0.365
		c4.624,2,7.414,5.597,7.414,10.949V111.235z M479.711,97h-0.73c-0.547,0-0.981-0.367-0.981-1.827V94h2.076
		c0.487,0,0.73,0.283,0.73,0.77C480.806,95.988,480.441,97,479.711,97z M482,101.744v-1.095c0-0.73,0.631-1.649,0.996-1.649H483
		v1.649C483,101.014,483,101.379,482,101.744z M484.092,106.489h-0.73v-1.095c0-0.425,0.243-0.669,0.73-0.73h0.365
		c0,0.243,0.122,0.608,0.365,1.095C484.822,106.247,484.578,106.489,484.092,106.489z"/>
	<path d="M472.776,53.925c1.582,0,3.164-0.122,4.745-0.365c6.327-2.129,9.491-7.483,9.491-16.061c-0.73-1.764-1.217-4.147-1.46-6.52
		c-2.92-5.11-6.814-7.98-11.681-7.98h-2.92c-4.441,0-7.483,2.018-9.126,5.424c0,1.583,0.243,3.565,0.73,5.632
		c-0.487,2.373-0.73,3.79-0.73,4.094c0.669,5.84,1.156,8.8,1.46,8.8C463.285,51.574,466.449,53.925,472.776,53.925z M480.806,37.134
		l0.365-0.73c0.487,0,0.73,0.243,0.73,0.73v0.365c0,0.488-0.243,0.73-0.73,0.73h-0.365V37.134z M478,31.659
		c0-0.425,0.13-0.659,0.616-0.659h0.365c0.426,0,0.791,0.573,1.095,1.79c-0.243,0.488-0.308,0.835-0.308,1.077L478,33.484V31.659z
		 M467,36.039c1-1.46,2.158-2.19,3.07-2.19c3.407,0,5.185,3.136,5.185,9.948c-0.791,3.65-1.689,5.203-2.845,5.203h-0.73
		c-2.92,0-4.681-2.497-4.681-8.581V36.039z"/>
</g>
</svg>
