<?xml version="1.0" encoding="utf-8"?>
<!-- Generator: Adobe Illustrator 22.1.0, SVG Export Plug-In . SVG Version: 6.00 Build 0)  -->
<svg version="1.1" id="图层_1" xmlns="http://www.w3.org/2000/svg" xmlns:xlink="http://www.w3.org/1999/xlink" x="0px" y="0px"
	 viewBox="0 0 278.7 88.6" style="enable-background:new 0 0 278.7 88.6;" xml:space="preserve">
<style type="text/css">
	.st0{enable-background:new    ;}
	.st1{fill:#F09400;}
</style>
<title>logo</title>
<g class="st0">
	<path class="st1" d="M31.5,59.1l13.6,8.5C40.5,73.9,33.9,77,25.5,77C17.4,77,11,73.1,6.6,65.3C3.1,59.2,1.4,52,1.4,43.6
		c0-9.4,2.1-17.3,6.4-23.6c4.3-6.2,9.9-9.4,16.7-9.4c7.6,0,13.9,3.5,19,10.4c0.3,0.4,0.6,0.9,0.9,1.3L32.2,28
		c-1.3-3.7-3.2-5.5-5.7-5.6c-3.6,0-6.2,3-8,9.1c-1.1,3.9-1.7,8.3-1.7,13.2c0,8,1.3,13.7,3.9,17.2c1.3,1.6,2.7,2.4,4.3,2.5
		C27.6,64.3,29.8,62.6,31.5,59.1z"/>
	<path class="st1" d="M74.2,77c-9,0-15.9-3.9-20.8-11.6c-3.9-6.1-5.8-13.4-5.8-21.8c0-9.2,2.2-16.9,6.7-23.1
		c4.8-6.6,11.1-9.9,18.9-9.9c8.7,0,15.9,3.7,21.4,11.2c4.8,6.5,7.4,14.1,7.7,23c0,0.5,0,1,0,1.4c0,9.1-2.5,16.5-7.5,22.2
		C89.6,74.1,82.7,77,74.2,77z M73.5,64.4c3.4,0,6.3-2.8,8.5-8.4c1.9-4.9,2.9-10.2,2.9-16.1c0-7.5-1.6-12.7-4.8-15.6
		c-1.4-1.3-3.1-1.9-5-1.9c-4.4,0-7.8,3-10,9c-1.5,3.9-2.2,8.4-2.2,13.3c0,7.3,1.4,12.7,4.3,16.4C69,63.3,71.1,64.3,73.5,64.4z"/>
	<path class="st1" d="M123.9,62.9c2.9,0,5-1,6.2-3c0.5-0.8,0.8-1.7,0.8-2.7c0-1.8-1.9-4-5.6-6.6c-0.7-0.5-1.7-1.2-3.2-2.1
		c-5.4-3.6-9-6.6-10.9-8.9c-2.4-2.8-3.5-5.8-3.5-8.9c0-5.8,3-10.4,9-13.7c4.4-2.5,9.4-3.8,14.8-3.8c7.5,0,13.3,2.5,17.3,7.4
		c0.5,0.6,0.9,1.2,1.3,1.7L138.1,28c-0.4-2.1-1.6-3.5-3.8-4.3c-0.7-0.2-1.4-0.3-2.1-0.3c-2.7,0-4.7,1.2-6.1,3.6
		c-0.7,1.2-1,2.5-1,3.8c0,2.8,1.9,5.2,5.7,7.4c0.9,0.5,2.5,1.3,4.6,2.3c5,2.4,8.5,4.6,10.3,6.5c2.6,2.6,3.9,5.8,3.9,9.5
		c0,6.8-3.8,11.9-11.5,15.3c-4.9,2.1-10.4,3.1-16.6,3.1c-7.6-0.1-13.2-2.4-16.7-7.1l13.6-8.5C119.6,61.6,121.4,62.9,123.9,62.9z"/>
	<path class="st1" d="M158.4,75.1l-4.3-57.7l19.8-3.4l-0.8,51.3l23.6-1.2l-0.5,8.9L158.4,75.1z"/>
	<path class="st1" d="M218.4,75.1l-14.5-1.6l-4.3-56.1l19.8-3.4L218.4,75.1z"/>
	<path class="st1" d="M225.4,19.9l1.1-9c17.2,0.5,30,3.8,38.3,9.7c4.9,3.6,7.4,7.5,7.5,11.8c0,4.2-2.8,7.8-8.4,10.9
		c-0.3,0.2-0.6,0.3-0.8,0.4c8.4,2.4,13.2,5.8,14.4,10.1c0.2,0.6,0.2,1.2,0.2,1.8c0,3.9-3,7.5-8.9,10.9c-8.6,4.9-20.4,7.7-35.4,8.3
		l-3,0.3l-4.2-51.9l11.6-2.1C233.8,20.4,229.6,20,225.4,19.9z M245.4,49.7l-0.3,14.5c7.1-1.6,11.6-3.7,13.5-6.5
		c0.4-0.7,0.7-1.3,0.7-1.9c0-2.6-3.2-4.4-9.7-5.6C248.3,50.1,246.9,49.9,245.4,49.7z M245.6,39.1c4.9-1.4,7.6-3.4,8.1-6
		c0.1-0.3,0.1-0.5,0.1-0.7c0-3.3-2.4-6.1-7.3-8.4c-0.2-0.1-0.4-0.2-0.6-0.2L245.6,39.1z"/>
</g>
</svg>
