<?xml version="1.0" encoding="utf-8"?>
<!-- Generator: Adobe Illustrator 17.0.0, SVG Export Plug-In . SVG Version: 6.00 Build 0)  -->
<!DOCTYPE svg PUBLIC "-//W3C//DTD SVG 1.1//EN" "http://www.w3.org/Graphics/SVG/1.1/DTD/svg11.dtd">
<svg version="1.1" id="Capa_1" xmlns="http://www.w3.org/2000/svg" xmlns:xlink="http://www.w3.org/1999/xlink" x="0px" y="0px"
	 width="500px" height="500px" viewBox="0 0 500 500" enable-background="new 0 0 500 500" xml:space="preserve">
<g>
	<path d="M43.529,203.673l-0.449,2.698l-15.188-2.527l-3.011,18.103l15.188,2.527l-0.445,2.676l-31.681-5.27l0.445-2.676
		l14.23,2.368l3.011-18.103l-14.23-2.368l0.449-2.698L43.529,203.673z"/>
	<path d="M48.321,188.596c-0.449,1.493-1.139,2.783-2.071,3.87c-0.933,1.087-2.032,1.934-3.297,2.545
		c-1.266,0.61-2.658,0.964-4.176,1.061c-1.518,0.096-3.094-0.101-4.728-0.59l-0.909-0.273c-1.76-0.529-3.276-1.271-4.547-2.23
		c-1.271-0.957-2.275-2.037-3.011-3.241c-0.736-1.204-1.203-2.476-1.399-3.818c-0.196-1.34-0.098-2.666,0.296-3.976
		c0.436-1.45,1.083-2.661,1.943-3.631c0.859-0.971,1.869-1.7,3.029-2.189c1.16-0.488,2.44-0.738,3.84-0.747
		c1.4-0.009,2.861,0.214,4.382,0.671l1.542,0.463l-4.897,16.309l0.486,0.146c1.254,0.377,2.49,0.541,3.71,0.492
		c1.22-0.049,2.342-0.294,3.366-0.74c1.024-0.445,1.916-1.075,2.675-1.891c0.76-0.816,1.314-1.809,1.665-2.977
		c0.406-1.353,0.518-2.62,0.336-3.803c-0.182-1.183-0.688-2.361-1.519-3.53l1.68-1.224c0.435,0.545,0.824,1.142,1.167,1.791
		c0.343,0.648,0.598,1.357,0.766,2.129c0.168,0.773,0.232,1.605,0.194,2.5C48.803,186.607,48.629,187.569,48.321,188.596z
		 M26.632,182.592c-0.288,0.958-0.371,1.9-0.25,2.827c0.121,0.928,0.425,1.805,0.913,2.635c0.488,0.83,1.147,1.588,1.977,2.275
		c0.83,0.687,1.802,1.275,2.914,1.762l4.116-13.711l-0.275-0.083c-0.966-0.259-1.939-0.382-2.918-0.37
		c-0.979,0.014-1.895,0.188-2.748,0.523c-0.853,0.335-1.607,0.842-2.264,1.519C27.443,180.647,26.954,181.521,26.632,182.592z"/>
	<path d="M36.209,157.498c-0.303,0.481-0.572,1.015-0.807,1.602c-0.333,0.833-0.51,1.633-0.532,2.4
		c-0.022,0.767,0.087,1.495,0.326,2.185c0.239,0.689,0.593,1.329,1.061,1.921c0.469,0.59,1.03,1.136,1.686,1.636l15.219,6.082
		l-0.974,2.437l-22.162-8.857l0.958-2.396l3.539,1.366c-0.975-1.086-1.608-2.285-1.9-3.597c-0.291-1.312-0.137-2.719,0.463-4.222
		c0.12-0.3,0.27-0.596,0.45-0.889c0.18-0.292,0.334-0.499,0.463-0.622L36.209,157.498z"/>
	<path d="M62.049,154.624c-0.701,1.392-1.606,2.543-2.713,3.45c-1.108,0.907-2.338,1.552-3.69,1.932
		c-1.353,0.381-2.785,0.486-4.297,0.318c-1.512-0.169-3.03-0.637-4.553-1.405l-0.847-0.426c-1.642-0.827-3.005-1.822-4.09-2.986
		c-1.085-1.164-1.885-2.403-2.401-3.716c-0.516-1.313-0.753-2.648-0.713-4.002c0.04-1.355,0.368-2.642,0.983-3.864
		c0.681-1.353,1.53-2.432,2.545-3.239c1.015-0.805,2.137-1.347,3.364-1.627c1.227-0.279,2.531-0.302,3.912-0.068
		c1.38,0.234,2.78,0.709,4.198,1.423l1.438,0.725l-7.661,15.207l0.453,0.228c1.169,0.589,2.358,0.966,3.568,1.13
		c1.21,0.165,2.357,0.118,3.443-0.143c1.086-0.259,2.074-0.725,2.963-1.397c0.89-0.671,1.609-1.552,2.158-2.642
		c0.635-1.26,0.966-2.49,0.993-3.686c0.027-1.197-0.267-2.443-0.882-3.741l1.867-0.912c0.333,0.612,0.613,1.268,0.838,1.965
		c0.225,0.698,0.352,1.442,0.383,2.231c0.031,0.79-0.051,1.621-0.244,2.495C62.87,152.75,62.532,153.666,62.049,154.624z
		 M41.737,144.937c-0.45,0.892-0.696,1.806-0.738,2.74c-0.042,0.934,0.105,1.852,0.441,2.753c0.336,0.903,0.853,1.764,1.551,2.585
		c0.698,0.82,1.552,1.568,2.563,2.242l6.44-12.786l-0.256-0.129c-0.906-0.423-1.843-0.714-2.809-0.871
		c-0.966-0.157-1.898-0.146-2.797,0.036c-0.898,0.181-1.729,0.549-2.494,1.102C42.874,143.163,42.24,143.938,41.737,144.937z"/>
	<path d="M51.371,113.29l5.032,3.465l2.803-4.069l1.78,1.226l-2.802,4.069l13.098,9.021c0.69,0.475,1.292,0.787,1.806,0.935
		c0.514,0.149,0.97,0.187,1.369,0.113c0.399-0.074,0.744-0.238,1.035-0.492c0.292-0.255,0.554-0.552,0.788-0.891
		c0.225-0.327,0.421-0.656,0.587-0.989c0.166-0.331,0.314-0.631,0.445-0.898l1.843,1.135c-0.087,0.334-0.251,0.734-0.492,1.201
		c-0.242,0.468-0.508,0.914-0.8,1.337c-0.425,0.618-0.901,1.133-1.428,1.547c-0.526,0.415-1.119,0.672-1.777,0.773
		c-0.658,0.1-1.39,0.029-2.196-0.214c-0.806-0.243-1.7-0.702-2.681-1.378l-13.098-9.021l-2.49,3.615l-1.78-1.226l2.49-3.614
		l-5.032-3.466L51.371,113.29z"/>
	<path d="M70.952,115.935c-1.336-1.106-2.409-2.323-3.218-3.653c-0.809-1.328-1.329-2.69-1.559-4.084
		c-0.23-1.392-0.161-2.786,0.21-4.179c0.37-1.392,1.066-2.706,2.088-3.941c1.041-1.257,2.213-2.2,3.517-2.83
		c1.304-0.629,2.662-0.96,4.074-0.994c1.412-0.033,2.844,0.226,4.295,0.779c1.452,0.552,2.846,1.382,4.182,2.489l0.561,0.464
		c1.337,1.107,2.412,2.322,3.226,3.645c0.814,1.323,1.336,2.681,1.566,4.074c0.231,1.394,0.158,2.784-0.218,4.172
		c-0.376,1.388-1.08,2.706-2.111,3.951c-1.032,1.247-2.194,2.183-3.487,2.811c-1.293,0.629-2.648,0.963-4.065,1.002
		c-1.417,0.04-2.853-0.215-4.309-0.762c-1.456-0.546-2.853-1.373-4.189-2.48L70.952,115.935z M73.201,114.36
		c1.008,0.835,2.081,1.494,3.217,1.977c1.137,0.483,2.264,0.748,3.381,0.794c1.116,0.046,2.198-0.147,3.243-0.58
		c1.045-0.432,1.981-1.147,2.806-2.144c0.825-0.997,1.35-2.046,1.576-3.148c0.225-1.103,0.211-2.198-0.043-3.286
		c-0.254-1.088-0.724-2.146-1.411-3.173c-0.687-1.027-1.534-1.957-2.542-2.792l-0.561-0.465c-0.985-0.816-2.047-1.465-3.183-1.948
		s-2.267-0.75-3.389-0.802c-1.122-0.05-2.211,0.141-3.267,0.575c-1.056,0.433-1.997,1.149-2.821,2.146
		c-0.816,0.985-1.334,2.032-1.553,3.138c-0.219,1.107-0.2,2.207,0.06,3.3c0.26,1.094,0.733,2.154,1.42,3.18
		c0.687,1.027,1.523,1.949,2.508,2.765L73.201,114.36z"/>
	<path d="M111.512,82.597c-0.32-0.365-0.704-0.674-1.151-0.928c-0.447-0.252-0.988-0.39-1.622-0.411
		c-0.634-0.02-1.388,0.103-2.259,0.369c-0.872,0.266-1.897,0.731-3.077,1.394c-1.179,0.663-2.279,1.198-3.301,1.605
		c-1.022,0.407-1.973,0.65-2.853,0.727c-0.88,0.079-1.696-0.032-2.448-0.331c-0.752-0.299-1.447-0.813-2.088-1.543
		c-0.582-0.663-0.988-1.422-1.219-2.276c-0.231-0.854-0.266-1.742-0.107-2.664c0.159-0.922,0.514-1.855,1.066-2.799
		c0.551-0.943,1.313-1.842,2.286-2.696c1.039-0.912,2.089-1.593,3.15-2.045c1.061-0.451,2.087-0.687,3.078-0.706
		c0.991-0.018,1.922,0.167,2.793,0.558c0.871,0.39,1.64,0.967,2.31,1.73l-1.989,1.745c-0.408-0.464-0.907-0.827-1.5-1.09
		c-0.592-0.262-1.233-0.39-1.921-0.382c-0.688,0.007-1.415,0.159-2.179,0.459c-0.764,0.299-1.517,0.774-2.258,1.423
		c-0.774,0.679-1.352,1.353-1.734,2.02c-0.382,0.669-0.616,1.304-0.703,1.908c-0.087,0.604-0.048,1.162,0.117,1.672
		c0.165,0.511,0.412,0.955,0.741,1.33c0.349,0.398,0.728,0.707,1.135,0.926c0.408,0.219,0.909,0.317,1.505,0.293
		c0.595-0.024,1.31-0.19,2.143-0.501c0.833-0.31,1.854-0.79,3.064-1.441c1.307-0.696,2.488-1.233,3.544-1.612
		c1.056-0.379,2.028-0.581,2.916-0.607c0.887-0.025,1.695,0.127,2.424,0.456c0.729,0.328,1.409,0.852,2.039,1.571
		c0.65,0.74,1.089,1.553,1.318,2.438c0.229,0.886,0.247,1.799,0.055,2.74c-0.191,0.941-0.59,1.891-1.194,2.853
		c-0.605,0.96-1.41,1.882-2.416,2.765c-1.139,0.999-2.273,1.735-3.403,2.208c-1.13,0.474-2.212,0.723-3.245,0.75
		c-1.033,0.026-1.986-0.15-2.857-0.531c-0.872-0.38-1.612-0.919-2.223-1.615l1.989-1.745c0.665,0.67,1.364,1.097,2.097,1.286
		c0.733,0.189,1.46,0.215,2.183,0.08c0.723-0.136,1.428-0.397,2.114-0.785c0.687-0.387,1.312-0.828,1.876-1.322
		c0.751-0.659,1.337-1.33,1.757-2.011c0.42-0.681,0.695-1.344,0.825-1.986c0.13-0.643,0.126-1.244-0.015-1.806
		C112.135,83.508,111.881,83.017,111.512,82.597z"/>
	<path d="M107.269,55.703l3.626,4.918l3.977-2.932l1.283,1.74l-3.977,2.932l9.438,12.8c0.497,0.675,0.965,1.166,1.402,1.474
		c0.437,0.309,0.856,0.493,1.257,0.553c0.401,0.061,0.781,0.018,1.139-0.127c0.359-0.146,0.703-0.34,1.035-0.585
		c0.32-0.236,0.612-0.483,0.878-0.743c0.265-0.259,0.503-0.494,0.714-0.705l1.372,1.674c-0.191,0.287-0.477,0.612-0.857,0.975
		c-0.381,0.363-0.779,0.697-1.193,1.002c-0.604,0.446-1.222,0.778-1.855,0.998c-0.633,0.219-1.277,0.27-1.931,0.149
		c-0.655-0.12-1.324-0.425-2.006-0.919c-0.683-0.492-1.377-1.218-2.084-2.176l-9.437-12.8l-3.533,2.604l-1.283-1.74l3.533-2.605
		l-3.626-4.917L107.269,55.703z"/>
	<path d="M145.787,66.267c-0.34-0.275-0.7-0.646-1.078-1.112c-0.379-0.467-0.742-0.956-1.088-1.468
		c-0.071,0.646-0.221,1.305-0.448,1.977c-0.228,0.673-0.542,1.329-0.944,1.971c-0.402,0.64-0.894,1.259-1.478,1.856
		c-0.584,0.596-1.277,1.139-2.081,1.629c-0.992,0.605-1.981,1.009-2.967,1.214c-0.986,0.205-1.924,0.221-2.812,0.048
		c-0.889-0.173-1.705-0.515-2.447-1.027c-0.743-0.512-1.366-1.182-1.871-2.011c-0.604-0.992-0.936-2.017-0.995-3.075
		c-0.059-1.058,0.143-2.111,0.607-3.159c0.463-1.049,1.18-2.07,2.149-3.065c0.969-0.995,2.17-1.929,3.601-2.801l4.182-2.549
		l-1.412-2.317c-0.887-1.457-2.035-2.329-3.441-2.618c-1.407-0.287-2.97,0.093-4.691,1.14c-0.791,0.483-1.455,1.033-1.99,1.652
		c-0.536,0.62-0.93,1.265-1.184,1.937c-0.254,0.671-0.365,1.337-0.333,1.998c0.032,0.661,0.22,1.273,0.565,1.838l-2.272,1.359
		c-0.467-0.766-0.73-1.622-0.789-2.568c-0.06-0.945,0.083-1.905,0.427-2.881c0.344-0.976,0.893-1.926,1.647-2.851
		c0.754-0.924,1.715-1.742,2.883-2.454c1.08-0.658,2.159-1.127,3.238-1.405c1.079-0.278,2.113-0.34,3.103-0.186
		c0.99,0.155,1.919,0.535,2.788,1.142c0.869,0.606,1.64,1.463,2.314,2.568l6.014,9.871c0.214,0.352,0.449,0.708,0.703,1.069
		c0.255,0.362,0.518,0.701,0.788,1.018c0.271,0.318,0.542,0.613,0.812,0.888c0.27,0.274,0.529,0.5,0.775,0.678l0.138,0.225
		L145.787,66.267z M137.718,68.963c0.816-0.498,1.51-1.062,2.081-1.693c0.571-0.632,1.028-1.302,1.371-2.011
		c0.343-0.708,0.575-1.431,0.695-2.166c0.12-0.736,0.133-1.464,0.04-2.182l-2.732-4.483l-3.862,2.353
		c-1.156,0.705-2.125,1.437-2.909,2.199c-0.784,0.762-1.372,1.529-1.762,2.301c-0.391,0.771-0.582,1.538-0.574,2.3
		c0.008,0.762,0.226,1.494,0.654,2.198c0.337,0.552,0.759,1.006,1.267,1.359c0.508,0.354,1.069,0.588,1.683,0.706
		c0.614,0.117,1.266,0.106,1.957-0.031C136.317,69.675,137.014,69.392,137.718,68.963z"/>
	<path d="M153.586,38.028c-0.547,0.154-1.104,0.372-1.671,0.65c-0.805,0.396-1.473,0.872-2.002,1.427
		c-0.53,0.555-0.936,1.17-1.22,1.842c-0.284,0.673-0.449,1.386-0.497,2.138c-0.048,0.753,0.005,1.534,0.158,2.344l7.235,14.705
		l-2.355,1.159l-10.536-21.415l2.316-1.139l1.715,3.384c0.003-1.459,0.335-2.774,0.997-3.944c0.662-1.17,1.718-2.111,3.17-2.826
		c0.29-0.143,0.6-0.262,0.93-0.359c0.329-0.097,0.583-0.148,0.761-0.153L153.586,38.028z"/>
	<path d="M160.043,26.275l2.289,5.665l4.581-1.851l0.81,2.004l-4.581,1.851l5.959,14.746c0.314,0.777,0.644,1.369,0.991,1.776
		c0.347,0.407,0.707,0.69,1.08,0.848c0.373,0.158,0.752,0.212,1.135,0.159s0.766-0.155,1.148-0.309
		c0.368-0.149,0.713-0.316,1.034-0.502c0.321-0.184,0.61-0.353,0.866-0.505l0.912,1.963c-0.256,0.231-0.614,0.474-1.073,0.731
		c-0.459,0.258-0.928,0.482-1.405,0.675c-0.695,0.281-1.377,0.449-2.044,0.505c-0.667,0.055-1.304-0.055-1.908-0.335
		c-0.605-0.279-1.176-0.742-1.715-1.389c-0.539-0.646-1.031-1.521-1.478-2.627l-5.959-14.745l-4.07,1.645l-0.81-2.004l4.07-1.645
		l-2.289-5.665L160.043,26.275z"/>
	<path d="M196.854,41.716l1.767-21.175l2.756-0.706l-2.912,29.325c-0.065,0.578-0.166,1.234-0.304,1.967
		c-0.139,0.734-0.38,1.449-0.725,2.145c-0.346,0.696-0.835,1.334-1.468,1.913c-0.633,0.58-1.477,1.006-2.531,1.276
		c-0.143,0.036-0.309,0.068-0.499,0.094c-0.191,0.026-0.383,0.049-0.575,0.067c-0.193,0.019-0.375,0.032-0.548,0.038
		c-0.173,0.007-0.313,0.008-0.42,0.006l-0.564-2.11c0.178-0.016,0.417-0.046,0.716-0.093c0.299-0.046,0.513-0.086,0.641-0.119
		c0.684-0.175,1.266-0.42,1.748-0.733c0.481-0.313,0.873-0.695,1.176-1.144c0.302-0.45,0.535-0.976,0.699-1.58
		s0.279-1.278,0.346-2.024l0.328-3.34L181.892,24.83l2.799-0.717L196.854,41.716z"/>
	<path d="M206.982,30.475c-0.251-1.717-0.232-3.339,0.057-4.868c0.289-1.528,0.815-2.887,1.577-4.076
		c0.762-1.189,1.747-2.176,2.955-2.963c1.208-0.786,2.605-1.295,4.19-1.528c1.615-0.236,3.118-0.152,4.507,0.254
		c1.389,0.407,2.62,1.07,3.691,1.99c1.071,0.921,1.96,2.073,2.668,3.455c0.708,1.382,1.187,2.933,1.439,4.649l0.105,0.721
		c0.251,1.717,0.236,3.339-0.046,4.866c-0.282,1.528-0.804,2.886-1.566,4.074c-0.762,1.189-1.748,2.173-2.956,2.952
		c-1.209,0.778-2.614,1.285-4.214,1.519c-1.601,0.234-3.092,0.152-4.473-0.248c-1.381-0.4-2.611-1.06-3.689-1.98
		c-1.079-0.92-1.975-2.07-2.69-3.452c-0.715-1.381-1.198-2.93-1.449-4.647L206.982,30.475z M209.706,30.812
		c0.19,1.295,0.545,2.503,1.065,3.623c0.521,1.12,1.18,2.072,1.978,2.854c0.798,0.782,1.73,1.362,2.797,1.741
		c1.066,0.38,2.239,0.475,3.52,0.288c1.28-0.187,2.373-0.615,3.279-1.282c0.906-0.668,1.629-1.491,2.169-2.469
		c0.54-0.978,0.9-2.078,1.077-3.301c0.178-1.222,0.172-2.481-0.018-3.776l-0.105-0.721c-0.186-1.266-0.538-2.459-1.059-3.579
		c-0.521-1.12-1.181-2.075-1.98-2.864s-1.736-1.377-2.81-1.762c-1.074-0.386-2.252-0.484-3.532-0.297
		c-1.266,0.185-2.351,0.615-3.256,1.29c-0.904,0.675-1.627,1.506-2.166,2.491c-0.54,0.985-0.898,2.089-1.076,3.312
		c-0.178,1.222-0.174,2.467,0.011,3.732L209.706,30.812z"/>
	<path d="M249.678,35.733c-0.715,1.111-1.684,1.991-2.907,2.641c-1.223,0.649-2.753,1.003-4.59,1.061
		c-1.176,0.037-2.247-0.094-3.213-0.395c-0.966-0.3-1.806-0.8-2.519-1.498c-0.714-0.698-1.276-1.611-1.687-2.738
		c-0.411-1.127-0.642-2.507-0.694-4.138l-0.484-15.278l2.624-0.083l0.485,15.323c0.04,1.278,0.221,2.339,0.542,3.183
		c0.321,0.843,0.739,1.514,1.256,2.013c0.516,0.499,1.112,0.847,1.788,1.046c0.676,0.199,1.389,0.287,2.138,0.264
		c1.058-0.034,1.988-0.181,2.789-0.441c0.801-0.261,1.488-0.614,2.063-1.059c0.574-0.445,1.043-0.96,1.407-1.545
		c0.364-0.585,0.645-1.227,0.844-1.925l-0.547-17.263l2.646-0.084l0.756,23.855l-2.557,0.081L249.678,35.733z"/>
	<path d="M270.802,18.027c-0.552-0.135-1.144-0.221-1.775-0.258c-0.896-0.052-1.711,0.033-2.445,0.256
		c-0.735,0.222-1.391,0.557-1.969,1.001c-0.578,0.446-1.074,0.984-1.486,1.615c-0.412,0.631-0.752,1.337-1.018,2.117l-0.952,16.361
		l-2.621-0.152l1.386-23.827l2.576,0.15l-0.176,3.79c0.722-1.269,1.659-2.249,2.812-2.941c1.152-0.692,2.536-0.99,4.151-0.896
		c0.323,0.019,0.651,0.068,0.986,0.146c0.334,0.078,0.58,0.159,0.737,0.242L270.802,18.027z"/>
	<path d="M308.398,36.21c-0.512,1.56-1.191,2.912-2.036,4.055c-0.845,1.144-1.846,2.051-3.003,2.722
		c-1.158,0.671-2.466,1.095-3.924,1.273c-1.459,0.179-3.051,0.084-4.777-0.283c-1.784-0.38-3.33-1.062-4.638-2.047
		c-1.309-0.985-2.349-2.21-3.119-3.675c-0.771-1.464-1.252-3.127-1.442-4.986c-0.191-1.86-0.061-3.847,0.389-5.961l0.84-3.948
		c0.45-2.114,1.141-3.985,2.074-5.613c0.933-1.628,2.052-2.95,3.358-3.965c1.306-1.015,2.773-1.706,4.399-2.074
		c1.627-0.368,3.361-0.356,5.202,0.036c1.668,0.355,3.122,0.905,4.362,1.65c1.24,0.744,2.243,1.661,3.012,2.749
		c0.768,1.088,1.308,2.331,1.62,3.728c0.312,1.397,0.375,2.918,0.19,4.563l-2.675-0.57c0.111-1.299,0.064-2.493-0.14-3.582
		c-0.205-1.088-0.591-2.046-1.159-2.874c-0.568-0.827-1.321-1.529-2.258-2.105c-0.937-0.575-2.082-1.007-3.434-1.294
		c-1.467-0.312-2.837-0.307-4.108,0.016c-1.272,0.324-2.42,0.917-3.446,1.782c-1.026,0.864-1.907,1.981-2.641,3.351
		c-0.735,1.37-1.292,2.947-1.672,4.729l-0.849,3.992c-0.367,1.726-0.505,3.362-0.413,4.907c0.092,1.546,0.414,2.93,0.966,4.153
		c0.552,1.222,1.333,2.249,2.344,3.081c1.01,0.832,2.25,1.403,3.717,1.715c2.776,0.59,5.01,0.371,6.703-0.659
		c1.693-1.03,2.987-2.841,3.885-5.432L308.398,36.21z"/>
	<path d="M313.779,35.454c0.571-1.639,1.337-3.069,2.3-4.291c0.963-1.221,2.057-2.183,3.283-2.886
		c1.226-0.701,2.555-1.122,3.99-1.261c1.434-0.139,2.908,0.055,4.422,0.583c1.542,0.537,2.834,1.307,3.879,2.309
		c1.044,1.003,1.829,2.159,2.353,3.471c0.524,1.312,0.78,2.744,0.769,4.297c-0.012,1.554-0.303,3.149-0.874,4.788l-0.239,0.688
		c-0.571,1.638-1.335,3.07-2.29,4.294c-0.956,1.224-2.047,2.188-3.272,2.889c-1.226,0.702-2.554,1.119-3.986,1.251
		c-1.432,0.132-2.912-0.068-4.439-0.601c-1.528-0.532-2.811-1.294-3.851-2.287c-1.04-0.993-1.826-2.146-2.357-3.46
		c-0.531-1.313-0.794-2.749-0.79-4.304c0.005-1.555,0.292-3.153,0.863-4.792L313.779,35.454z M316.039,37.012
		c-0.431,1.236-0.674,2.471-0.73,3.705c-0.056,1.234,0.089,2.382,0.435,3.446c0.346,1.062,0.904,2.008,1.675,2.837
		c0.77,0.829,1.766,1.456,2.988,1.882c1.222,0.425,2.389,0.551,3.5,0.378c1.112-0.173,2.133-0.569,3.065-1.187
		c0.931-0.618,1.758-1.428,2.481-2.429c0.723-1.002,1.299-2.121,1.73-3.357l0.24-0.687c0.421-1.209,0.659-2.43,0.715-3.664
		c0.056-1.234-0.088-2.386-0.432-3.455c-0.344-1.07-0.903-2.023-1.678-2.862c-0.775-0.838-1.773-1.47-2.995-1.896
		c-1.208-0.421-2.369-0.541-3.483-0.361s-2.138,0.583-3.072,1.208c-0.934,0.624-1.762,1.438-2.485,2.44
		c-0.723,1.002-1.294,2.106-1.715,3.314L316.039,37.012z"/>
	<path d="M349.571,56.642c0.209-0.438,0.342-0.913,0.398-1.423c0.057-0.511-0.031-1.062-0.261-1.653
		c-0.231-0.592-0.641-1.235-1.229-1.932c-0.588-0.697-1.419-1.456-2.493-2.278c-1.074-0.822-1.999-1.623-2.776-2.403
		c-0.777-0.778-1.375-1.556-1.793-2.336c-0.419-0.778-0.639-1.571-0.659-2.38c-0.021-0.809,0.178-1.652,0.596-2.527
		c0.38-0.796,0.917-1.468,1.611-2.017c0.694-0.549,1.496-0.931,2.407-1.148s1.908-0.258,2.992-0.123
		c1.084,0.135,2.21,0.481,3.378,1.039c1.247,0.596,2.288,1.293,3.121,2.09c0.833,0.797,1.454,1.648,1.861,2.551
		c0.408,0.904,0.603,1.834,0.588,2.787s-0.242,1.889-0.68,2.804l-2.388-1.141c0.266-0.557,0.403-1.159,0.411-1.808
		c0.008-0.648-0.127-1.287-0.404-1.916c-0.278-0.63-0.705-1.238-1.281-1.822c-0.576-0.585-1.309-1.09-2.198-1.515
		c-0.929-0.443-1.775-0.709-2.54-0.798c-0.765-0.088-1.441-0.053-2.03,0.106c-0.589,0.158-1.086,0.414-1.491,0.767
		c-0.405,0.352-0.715,0.754-0.93,1.205c-0.228,0.478-0.363,0.948-0.404,1.408c-0.041,0.462,0.066,0.961,0.323,1.499
		c0.256,0.538,0.691,1.129,1.305,1.773c0.613,0.644,1.457,1.392,2.532,2.249c1.154,0.926,2.114,1.801,2.879,2.622
		s1.333,1.636,1.706,2.441c0.373,0.805,0.552,1.607,0.536,2.407c-0.015,0.8-0.229,1.63-0.641,2.493
		c-0.425,0.889-0.999,1.613-1.722,2.172c-0.723,0.559-1.555,0.935-2.495,1.13c-0.941,0.195-1.972,0.204-3.093,0.026
		c-1.122-0.178-2.286-0.554-3.493-1.131c-1.367-0.653-2.49-1.406-3.37-2.258c-0.88-0.853-1.536-1.749-1.967-2.688
		c-0.431-0.94-0.644-1.885-0.638-2.836c0.006-0.95,0.208-1.844,0.608-2.68l2.388,1.141c-0.353,0.874-0.471,1.685-0.356,2.433
		c0.115,0.749,0.377,1.428,0.786,2.038c0.409,0.611,0.927,1.156,1.554,1.635c0.627,0.48,1.279,0.88,1.955,1.204
		c0.902,0.431,1.749,0.705,2.541,0.822c0.791,0.118,1.508,0.11,2.15-0.024c0.642-0.133,1.194-0.374,1.654-0.725
		S349.33,57.147,349.571,56.642z"/>
	<path d="M357.879,65.532l13.501,8.321l-1.204,1.952l-15.83-9.755l16.85-27.342l2.328,1.435L357.879,65.532z"/>
	<path d="M375.695,80.071l-2.139-1.559l14.053-19.291l2.14,1.559L375.695,80.071z M391.299,53.369
		c0.294-0.404,0.674-0.65,1.139-0.74c0.465-0.088,0.923,0.032,1.375,0.361c0.452,0.328,0.71,0.731,0.773,1.205
		s-0.051,0.913-0.346,1.317c-0.294,0.405-0.675,0.646-1.141,0.724c-0.467,0.079-0.926-0.046-1.377-0.376
		c-0.452-0.329-0.709-0.725-0.771-1.189C390.889,54.207,391.005,53.772,391.299,53.369z"/>
	<path d="M403.21,87.533c-1.168,1.361-2.39,2.474-3.664,3.337c-1.275,0.863-2.554,1.446-3.84,1.748
		c-1.286,0.301-2.552,0.309-3.799,0.023c-1.247-0.285-2.418-0.897-3.511-1.836c-1.328-1.14-2.248-2.365-2.759-3.677
		c-0.512-1.311-0.695-2.661-0.551-4.048l-2.21,2.406l-1.874-1.61l22.068-25.708l1.992,1.71l-8.778,10.226
		c1.407-0.42,2.796-0.492,4.168-0.216c1.372,0.276,2.716,0.98,4.032,2.11c1.105,0.949,1.9,2.009,2.385,3.182
		c0.486,1.172,0.682,2.416,0.589,3.733c-0.093,1.316-0.472,2.672-1.137,4.068c-0.665,1.396-1.601,2.796-2.808,4.202L403.21,87.533z
		 M401.503,85.458c0.9-1.049,1.643-2.118,2.228-3.205c0.584-1.087,0.949-2.15,1.094-3.189c0.145-1.037,0.048-2.037-0.291-2.996
		c-0.339-0.959-0.977-1.842-1.915-2.646c-0.759-0.652-1.517-1.123-2.274-1.415c-0.758-0.292-1.497-0.446-2.218-0.465
		c-0.721-0.018-1.418,0.072-2.091,0.269c-0.673,0.197-1.305,0.459-1.895,0.786l-7.011,8.167c-0.2,0.662-0.32,1.338-0.362,2.03
		c-0.041,0.691,0.024,1.377,0.196,2.058c0.172,0.68,0.465,1.348,0.88,2.006c0.415,0.656,0.974,1.286,1.677,1.89
		c0.904,0.776,1.85,1.259,2.84,1.449c0.989,0.191,1.989,0.138,2.999-0.158c1.01-0.295,2.008-0.81,2.995-1.542
		c0.987-0.732,1.935-1.628,2.845-2.688L401.503,85.458z"/>
	<path d="M426.181,94.031l-19.879,17.842c-1.641,1.474-3.248,2.205-4.82,2.192c-1.572-0.011-3.045-0.784-4.42-2.316
		c-0.245-0.274-0.478-0.588-0.699-0.945c-0.22-0.355-0.399-0.708-0.536-1.059l1.655-1.426c0.112,0.235,0.27,0.509,0.471,0.822
		c0.202,0.312,0.416,0.595,0.642,0.846c0.845,0.941,1.767,1.418,2.766,1.431c0.999,0.011,2.062-0.488,3.189-1.5l19.879-17.842
		L426.181,94.031z M429.257,87.121c0.372-0.334,0.792-0.499,1.261-0.493c0.468,0.005,0.889,0.214,1.262,0.63
		c0.383,0.426,0.554,0.876,0.513,1.347c-0.041,0.472-0.248,0.874-0.62,1.208c-0.372,0.335-0.792,0.494-1.26,0.48
		c-0.468-0.015-0.893-0.236-1.276-0.663c-0.374-0.416-0.54-0.854-0.499-1.316C428.678,87.852,428.885,87.455,429.257,87.121z"/>
	<path d="M421.912,106.42c1.38-1.051,2.81-1.82,4.287-2.308c1.477-0.486,2.921-0.684,4.33-0.594c1.409,0.092,2.75,0.475,4.023,1.152
		c1.272,0.676,2.394,1.652,3.365,2.927c0.989,1.299,1.642,2.654,1.959,4.067c0.317,1.412,0.333,2.81,0.046,4.192
		c-0.287,1.383-0.865,2.719-1.731,4.008c-0.867,1.288-1.991,2.458-3.372,3.51l-0.579,0.44c-1.381,1.052-2.808,1.823-4.28,2.317
		c-1.473,0.493-2.914,0.693-4.324,0.603c-1.41-0.092-2.748-0.477-4.014-1.158c-1.267-0.681-2.39-1.664-3.37-2.951
		c-0.98-1.287-1.629-2.631-1.948-4.034c-0.319-1.402-0.337-2.797-0.055-4.186c0.283-1.388,0.855-2.73,1.718-4.025
		c0.863-1.294,1.984-2.467,3.365-3.518L421.912,106.42z M422.937,108.967c-1.042,0.793-1.926,1.688-2.654,2.685
		c-0.728,0.998-1.241,2.036-1.539,3.113c-0.298,1.077-0.355,2.173-0.171,3.289c0.185,1.116,0.669,2.19,1.453,3.219
		s1.687,1.779,2.71,2.248c1.022,0.469,2.092,0.704,3.21,0.702c1.118,0,2.254-0.218,3.41-0.655c1.155-0.437,2.254-1.051,3.296-1.844
		l0.579-0.441c1.018-0.775,1.891-1.661,2.619-2.659c0.728-0.998,1.244-2.037,1.548-3.119c0.304-1.081,0.364-2.185,0.181-3.312
		c-0.183-1.127-0.667-2.206-1.45-3.235c-0.775-1.017-1.677-1.759-2.705-2.223c-1.029-0.465-2.105-0.695-3.228-0.69
		c-1.124,0.006-2.263,0.226-3.419,0.663c-1.156,0.436-2.243,1.042-3.26,1.817L422.937,108.967z"/>
	<path d="M437.975,146.314c-1.319-0.088-2.558-0.51-3.718-1.266c-1.16-0.757-2.21-1.924-3.149-3.503
		c-0.602-1.011-1.004-2.012-1.209-3.003c-0.204-0.99-0.174-1.967,0.092-2.929c0.266-0.963,0.793-1.896,1.581-2.802
		c0.788-0.904,1.883-1.774,3.286-2.608l13.137-7.815l1.342,2.256l-13.175,7.838c-1.1,0.654-1.941,1.326-2.523,2.015
		c-0.583,0.689-0.967,1.379-1.154,2.072c-0.187,0.692-0.204,1.383-0.051,2.071c0.152,0.688,0.421,1.354,0.804,1.999
		c0.541,0.909,1.12,1.652,1.736,2.226c0.615,0.575,1.257,1.007,1.924,1.294c0.667,0.287,1.345,0.449,2.034,0.484
		c0.688,0.035,1.386-0.028,2.093-0.192l14.843-8.831l1.353,2.275l-20.511,12.203l-1.308-2.199L437.975,146.314z"/>
	<path d="M463.684,156.292c-0.148-0.549-0.358-1.109-0.63-1.679c-0.386-0.81-0.854-1.483-1.403-2.019
		c-0.549-0.536-1.158-0.95-1.827-1.242c-0.669-0.292-1.379-0.467-2.131-0.524c-0.752-0.057-1.534-0.014-2.345,0.129l-14.792,7.057
		l-1.13-2.37l21.541-10.276l1.111,2.329l-3.405,1.673c1.46,0.02,2.77,0.369,3.932,1.045c1.161,0.675,2.09,1.743,2.787,3.203
		c0.139,0.292,0.255,0.604,0.348,0.934c0.092,0.33,0.14,0.585,0.143,0.762L463.684,156.292z"/>
	<path d="M468.867,162.842l-3.798,1.495c0.777,0.152,1.52,0.383,2.231,0.693c0.71,0.31,1.365,0.707,1.967,1.191
		c0.602,0.483,1.135,1.046,1.599,1.69c0.465,0.644,0.845,1.365,1.14,2.166c0.412,1.118,0.629,2.173,0.652,3.168
		c0.022,0.994-0.184,1.922-0.621,2.779c-0.435,0.859-1.114,1.642-2.036,2.351c-0.923,0.708-2.121,1.335-3.597,1.879l-14.57,5.374
		l-0.909-2.463l14.59-5.381c1.159-0.428,2.078-0.908,2.76-1.442c0.681-0.533,1.172-1.113,1.473-1.742
		c0.301-0.628,0.431-1.308,0.389-2.036c-0.042-0.73-0.21-1.494-0.506-2.294c-0.326-0.883-0.769-1.629-1.33-2.236
		c-0.561-0.609-1.192-1.096-1.892-1.465c-0.7-0.369-1.444-0.635-2.234-0.799c-0.789-0.163-1.565-0.238-2.327-0.223l-15.335,5.657
		l-0.908-2.463l22.392-8.26L468.867,162.842z"/>
	<path d="M455.338,200.43c-0.375-1.512-0.437-2.975-0.188-4.384c0.249-1.411,0.763-2.7,1.541-3.87
		c0.778-1.17,1.796-2.183,3.053-3.041c1.257-0.856,2.714-1.49,4.37-1.899l0.921-0.229c1.784-0.442,3.467-0.575,5.048-0.398
		c1.581,0.176,2.995,0.595,4.242,1.256c1.247,0.661,2.296,1.518,3.148,2.572c0.852,1.054,1.442,2.245,1.771,3.572
		c0.364,1.471,0.423,2.841,0.178,4.115c-0.245,1.273-0.743,2.414-1.492,3.425c-0.749,1.011-1.724,1.878-2.924,2.599
		c-1.2,0.721-2.571,1.273-4.112,1.655l-1.563,0.387l-4.094-16.53l-0.493,0.122c-1.271,0.314-2.418,0.803-3.443,1.466
		c-1.025,0.663-1.865,1.447-2.52,2.352c-0.655,0.904-1.101,1.9-1.339,2.99c-0.238,1.089-0.21,2.226,0.083,3.41
		c0.339,1.371,0.889,2.519,1.648,3.444c0.759,0.925,1.795,1.68,3.106,2.265l-0.823,1.907c-0.652-0.247-1.291-0.562-1.916-0.946
		c-0.625-0.382-1.206-0.864-1.743-1.442c-0.538-0.579-1.017-1.264-1.44-2.053C455.937,202.388,455.597,201.472,455.338,200.43z
		 M477.061,194.55c-0.24-0.971-0.649-1.823-1.225-2.56c-0.576-0.735-1.286-1.337-2.128-1.802c-0.843-0.466-1.796-0.783-2.86-0.95
		c-1.064-0.169-2.2-0.179-3.405-0.032l3.441,13.895l0.278-0.069c0.964-0.269,1.863-0.658,2.699-1.169
		c0.836-0.51,1.535-1.126,2.099-1.848c0.563-0.723,0.955-1.543,1.174-2.461C477.354,196.637,477.33,195.635,477.061,194.55z"/>
	<path d="M463.386,219.997l20.855,4.07l0.4,2.817l-28.83-6.097c-0.568-0.128-1.209-0.3-1.923-0.517
		c-0.714-0.218-1.398-0.536-2.052-0.956c-0.654-0.42-1.234-0.975-1.741-1.668c-0.507-0.692-0.838-1.577-0.991-2.655
		c-0.021-0.145-0.034-0.314-0.039-0.507c-0.005-0.192-0.007-0.386-0.004-0.578c0.002-0.193,0.01-0.377,0.022-0.55
		c0.012-0.172,0.026-0.312,0.041-0.417l2.159-0.33c-0.004,0.179,0.001,0.42,0.014,0.723c0.014,0.302,0.029,0.519,0.048,0.65
		c0.1,0.698,0.279,1.304,0.537,1.817c0.259,0.512,0.595,0.943,1.009,1.294c0.414,0.348,0.912,0.638,1.494,0.868
		c0.582,0.229,1.24,0.417,1.974,0.566l3.285,0.69l22.162-12.247l0.408,2.861L463.386,219.997z"/>
	<path d="M477.459,244.233c0.515-0.009,0.951,0.145,1.31,0.463c0.359,0.317,0.543,0.769,0.553,1.357
		c0.011,0.588-0.157,1.054-0.503,1.399c-0.347,0.344-0.778,0.521-1.293,0.531s-0.948-0.153-1.299-0.484
		c-0.352-0.333-0.533-0.792-0.544-1.38c-0.01-0.588,0.154-1.047,0.494-1.377C476.517,244.411,476.945,244.243,477.459,244.233z"/>
	<path d="M456.218,299.93l0.487-2.692l15.15,2.74l3.267-18.059l-15.151-2.74l0.483-2.67l31.603,5.716l-0.482,2.67l-14.196-2.568
		l-3.266,18.059l14.195,2.568l-0.486,2.691L456.218,299.93z"/>
	<path d="M451.214,314.937c0.469-1.486,1.178-2.766,2.126-3.839c0.948-1.073,2.059-1.906,3.333-2.499
		c1.274-0.592,2.671-0.926,4.19-1.001c1.519-0.076,3.093,0.144,4.72,0.657l0.905,0.285c1.752,0.554,3.258,1.318,4.514,2.293
		c1.258,0.975,2.245,2.07,2.965,3.284s1.169,2.493,1.345,3.837c0.178,1.344,0.06,2.667-0.352,3.972
		c-0.456,1.445-1.12,2.645-1.993,3.604c-0.873,0.957-1.892,1.673-3.06,2.145c-1.166,0.472-2.45,0.702-3.85,0.692
		c-1.4-0.01-2.857-0.253-4.372-0.732l-1.535-0.485l5.126-16.238l-0.484-0.153c-1.249-0.395-2.482-0.576-3.703-0.545
		c-1.221,0.032-2.346,0.262-3.376,0.692c-1.03,0.431-1.931,1.049-2.702,1.854c-0.771,0.805-1.34,1.79-1.707,2.953
		c-0.425,1.346-0.555,2.612-0.389,3.797c0.165,1.187,0.655,2.37,1.469,3.552l-1.697,1.199c-0.428-0.551-0.808-1.153-1.142-1.805
		c-0.334-0.653-0.579-1.366-0.735-2.14c-0.157-0.775-0.209-1.609-0.158-2.502C450.704,316.918,450.891,315.96,451.214,314.937z
		 M472.816,321.247c0.301-0.954,0.397-1.895,0.29-2.823c-0.109-0.928-0.4-1.811-0.877-2.647c-0.475-0.837-1.123-1.604-1.944-2.302
		c-0.82-0.699-1.783-1.3-2.889-1.803l-4.309,13.651l0.273,0.087c0.962,0.273,1.933,0.409,2.912,0.411
		c0.98,0,1.898-0.162,2.756-0.484c0.857-0.324,1.619-0.819,2.285-1.487S472.479,322.313,472.816,321.247z"/>
	<path d="M462.888,346.198c0.31-0.477,0.586-1.007,0.829-1.59c0.344-0.829,0.533-1.627,0.566-2.394
		c0.032-0.767-0.066-1.497-0.296-2.189c-0.23-0.693-0.574-1.338-1.034-1.935c-0.46-0.598-1.014-1.152-1.663-1.659l-15.131-6.296
		l1.008-2.424l22.036,9.169l-0.992,2.382l-3.52-1.416c0.96,1.099,1.576,2.308,1.849,3.624c0.273,1.316,0.098,2.72-0.524,4.214
		c-0.123,0.299-0.278,0.593-0.462,0.882c-0.184,0.29-0.341,0.495-0.471,0.616L462.888,346.198z"/>
	<path d="M437.01,348.707c0.721-1.382,1.641-2.519,2.761-3.412c1.12-0.891,2.359-1.518,3.717-1.88
		c1.358-0.362,2.791-0.447,4.301-0.257c1.509,0.19,3.02,0.679,4.533,1.468l0.841,0.438c1.63,0.851,2.979,1.865,4.048,3.044
		c1.068,1.179,1.851,2.429,2.349,3.75c0.497,1.32,0.716,2.657,0.657,4.011c-0.059,1.354-0.405,2.638-1.037,3.851
		c-0.7,1.343-1.564,2.409-2.59,3.201c-1.026,0.792-2.155,1.318-3.386,1.58c-1.231,0.262-2.535,0.266-3.912,0.012
		c-1.377-0.253-2.769-0.748-4.178-1.482l-1.428-0.744l7.874-15.099l-0.45-0.235c-1.161-0.605-2.344-0.999-3.552-1.18
		c-1.207-0.182-2.355-0.15-3.445,0.094s-2.084,0.696-2.983,1.355c-0.899,0.658-1.631,1.529-2.195,2.612
		c-0.653,1.252-1.001,2.476-1.044,3.672c-0.044,1.197,0.233,2.448,0.829,3.753l-1.88,0.886c-0.325-0.616-0.595-1.276-0.81-1.977
		c-0.215-0.7-0.332-1.446-0.352-2.235c-0.02-0.79,0.074-1.62,0.279-2.492C436.163,350.57,436.514,349.658,437.01,348.707z
		 M457.184,358.679c0.462-0.887,0.721-1.796,0.777-2.73c0.055-0.933-0.079-1.853-0.402-2.759c-0.323-0.907-0.828-1.776-1.514-2.606
		c-0.686-0.83-1.53-1.59-2.531-2.278L446.894,361l0.254,0.132c0.9,0.437,1.832,0.74,2.796,0.911
		c0.964,0.171,1.896,0.172,2.797,0.003s1.737-0.525,2.509-1.067C456.022,360.437,456.667,359.67,457.184,358.679z"/>
	<path d="M447.103,390.195l-4.983-3.536l-2.859,4.029l-1.763-1.251l2.859-4.029l-12.97-9.203c-0.684-0.485-1.281-0.805-1.793-0.961
		c-0.512-0.155-0.967-0.199-1.367-0.131c-0.4,0.068-0.747,0.227-1.042,0.477c-0.295,0.25-0.562,0.544-0.8,0.88
		c-0.23,0.324-0.43,0.649-0.601,0.98c-0.171,0.329-0.323,0.627-0.458,0.893l-1.827-1.161c0.092-0.333,0.261-0.731,0.509-1.195
		c0.248-0.464,0.521-0.906,0.819-1.326c0.434-0.611,0.917-1.121,1.449-1.527c0.532-0.407,1.128-0.656,1.788-0.747
		c0.659-0.092,1.391-0.01,2.193,0.244c0.803,0.253,1.689,0.725,2.661,1.415l12.97,9.203l2.54-3.58l1.763,1.251l-2.54,3.58
		l4.983,3.536L447.103,390.195z"/>
	<path d="M427.559,387.277c1.321,1.126,2.377,2.358,3.167,3.698c0.79,1.339,1.291,2.708,1.502,4.105
		c0.211,1.396,0.122,2.787-0.268,4.175c-0.39,1.387-1.104,2.691-2.144,3.912c-1.059,1.242-2.244,2.168-3.556,2.78
		c-1.312,0.611-2.675,0.923-4.087,0.937c-1.413,0.015-2.84-0.266-4.284-0.838c-1.443-0.574-2.826-1.422-4.147-2.547l-0.554-0.472
		c-1.321-1.126-2.379-2.355-3.174-3.689c-0.795-1.335-1.298-2.7-1.509-4.096c-0.211-1.397-0.118-2.787,0.277-4.17
		c0.395-1.382,1.117-2.689,2.166-3.921c1.049-1.232,2.224-2.153,3.526-2.762c1.302-0.61,2.662-0.925,4.079-0.945
		c1.417-0.019,2.85,0.255,4.298,0.822c1.448,0.567,2.833,1.413,4.154,2.538L427.559,387.277z M425.288,388.82
		c-0.997-0.848-2.06-1.523-3.19-2.021c-1.13-0.499-2.253-0.779-3.369-0.84c-1.116-0.062-2.199,0.115-3.251,0.534
		c-1.051,0.417-1.997,1.119-2.836,2.104c-0.839,0.985-1.379,2.027-1.62,3.127c-0.241,1.098-0.242,2.193-0.003,3.286
		c0.239,1.092,0.694,2.156,1.366,3.192c0.672,1.036,1.506,1.978,2.503,2.827l0.554,0.473c0.974,0.829,2.026,1.493,3.156,1.992
		c1.13,0.499,2.256,0.782,3.377,0.85c1.121,0.066,2.213-0.11,3.275-0.528c1.062-0.42,2.012-1.121,2.851-2.106
		c0.83-0.974,1.362-2.012,1.597-3.116c0.235-1.104,0.23-2.205-0.014-3.301c-0.244-1.096-0.703-2.163-1.375-3.199
		c-0.672-1.036-1.495-1.969-2.469-2.799L425.288,388.82z"/>
	<path d="M386.545,420.038c0.315,0.369,0.694,0.683,1.138,0.942c0.444,0.26,0.982,0.404,1.616,0.433
		c0.634,0.029,1.389-0.083,2.264-0.336c0.876-0.255,1.907-0.705,3.095-1.351c1.188-0.647,2.296-1.166,3.323-1.559
		c1.027-0.394,1.982-0.623,2.863-0.689c0.881-0.066,1.696,0.057,2.443,0.366c0.747,0.309,1.436,0.834,2.066,1.571
		c0.573,0.672,0.969,1.435,1.187,2.293c0.219,0.857,0.242,1.745,0.07,2.665c-0.172,0.921-0.54,1.848-1.105,2.784
		c-0.565,0.935-1.339,1.823-2.323,2.664c-1.051,0.896-2.111,1.563-3.179,2c-1.067,0.437-2.096,0.658-3.088,0.663
		c-0.991,0.005-1.92-0.193-2.785-0.596c-0.865-0.403-1.627-0.99-2.286-1.761l2.014-1.718c0.401,0.469,0.896,0.84,1.484,1.111
		c0.589,0.271,1.227,0.408,1.915,0.411c0.688,0.002,1.417-0.14,2.185-0.429c0.769-0.288,1.528-0.753,2.278-1.392
		c0.783-0.667,1.37-1.333,1.762-1.995c0.392-0.663,0.635-1.295,0.73-1.898c0.095-0.603,0.063-1.161-0.094-1.674
		c-0.158-0.514-0.398-0.959-0.723-1.34c-0.344-0.403-0.718-0.716-1.122-0.941c-0.404-0.225-0.905-0.33-1.5-0.314
		c-0.596,0.015-1.312,0.172-2.15,0.471c-0.837,0.299-1.865,0.765-3.084,1.398c-1.316,0.678-2.504,1.199-3.566,1.563
		c-1.062,0.364-2.036,0.553-2.924,0.567c-0.888,0.012-1.694-0.15-2.418-0.49c-0.724-0.338-1.396-0.872-2.017-1.599
		c-0.639-0.749-1.067-1.568-1.284-2.456c-0.216-0.889-0.222-1.802-0.018-2.74c0.205-0.939,0.616-1.883,1.234-2.836
		c0.618-0.952,1.436-1.863,2.454-2.732c1.152-0.983,2.297-1.702,3.433-2.161c1.137-0.457,2.222-0.691,3.255-0.704
		c1.034-0.012,1.984,0.178,2.849,0.57c0.866,0.393,1.599,0.941,2.201,1.646l-2.014,1.717c-0.656-0.678-1.348-1.116-2.078-1.314
		c-0.73-0.199-1.457-0.235-2.182-0.111c-0.724,0.126-1.433,0.377-2.125,0.754c-0.693,0.378-1.324,0.811-1.894,1.297
		c-0.761,0.648-1.356,1.311-1.785,1.986c-0.429,0.674-0.713,1.333-0.853,1.974c-0.139,0.64-0.143,1.243-0.01,1.806
		C385.934,419.119,386.182,419.613,386.545,420.038z"/>
	<path d="M390.415,446.985l-3.557-4.968l-4.017,2.877l-1.258-1.758l4.017-2.875l-9.258-12.932c-0.488-0.682-0.948-1.18-1.381-1.493
		c-0.433-0.314-0.85-0.504-1.249-0.571c-0.4-0.066-0.781-0.028-1.141,0.112s-0.708,0.33-1.043,0.57
		c-0.323,0.232-0.619,0.475-0.888,0.731c-0.269,0.256-0.51,0.488-0.724,0.695l-1.348-1.693c0.195-0.284,0.485-0.605,0.871-0.963
		c0.386-0.357,0.788-0.687,1.207-0.986c0.61-0.437,1.233-0.76,1.868-0.971c0.635-0.212,1.28-0.252,1.933-0.123
		c0.653,0.129,1.318,0.445,1.993,0.947c0.676,0.502,1.36,1.238,2.054,2.206l9.258,12.93l3.569-2.554l1.258,1.757l-3.569,2.555
		l3.557,4.968L390.415,446.985z"/>
	<path d="M352.039,435.888c0.336,0.279,0.69,0.656,1.062,1.128c0.372,0.472,0.728,0.966,1.068,1.483
		c0.08-0.645,0.239-1.302,0.476-1.972c0.237-0.669,0.561-1.321,0.971-1.956c0.411-0.636,0.912-1.248,1.504-1.835
		c0.592-0.589,1.293-1.122,2.104-1.601c1.001-0.59,1.995-0.981,2.984-1.172c0.989-0.191,1.926-0.193,2.813-0.008
		c0.886,0.185,1.697,0.54,2.432,1.062c0.735,0.521,1.349,1.201,1.843,2.037c0.59,1,0.907,2.029,0.952,3.088
		c0.044,1.058-0.173,2.107-0.651,3.15c-0.478,1.041-1.209,2.053-2.192,3.035c-0.983,0.981-2.196,1.898-3.64,2.75l-4.217,2.489
		l1.379,2.337c0.867,1.469,2.002,2.357,3.404,2.665c1.403,0.308,2.972-0.05,4.706-1.075c0.798-0.471,1.469-1.011,2.013-1.623
		s0.948-1.251,1.211-1.918s0.383-1.333,0.361-1.993s-0.203-1.276-0.539-1.846l2.291-1.326c0.456,0.771,0.707,1.631,0.753,2.578
		c0.046,0.946-0.109,1.904-0.467,2.875c-0.357,0.971-0.92,1.913-1.687,2.827c-0.767,0.913-1.739,1.718-2.917,2.413
		c-1.089,0.642-2.175,1.095-3.258,1.36c-1.083,0.262-2.118,0.31-3.105,0.141c-0.988-0.169-1.911-0.562-2.772-1.181
		c-0.861-0.62-1.62-1.486-2.278-2.601l-5.875-9.954c-0.209-0.354-0.438-0.715-0.688-1.079c-0.249-0.365-0.508-0.708-0.774-1.029
		c-0.266-0.321-0.533-0.62-0.799-0.898c-0.266-0.278-0.521-0.508-0.765-0.689l-0.135-0.227L352.039,435.888z M360.146,433.307
		c-0.823,0.485-1.525,1.041-2.104,1.664c-0.58,0.624-1.046,1.287-1.399,1.991c-0.353,0.704-0.595,1.423-0.725,2.157
		c-0.13,0.734-0.154,1.461-0.071,2.181l2.668,4.52l3.894-2.297c1.165-0.688,2.145-1.407,2.94-2.158
		c0.795-0.751,1.393-1.509,1.795-2.276c0.402-0.766,0.604-1.53,0.607-2.292c0.003-0.761-0.205-1.497-0.623-2.206
		c-0.329-0.558-0.745-1.017-1.248-1.377c-0.503-0.361-1.061-0.604-1.672-0.73c-0.612-0.126-1.265-0.124-1.958,0.003
		C361.556,432.616,360.855,432.888,360.146,433.307z"/>
	<path d="M343.846,464.014c0.549-0.147,1.109-0.356,1.68-0.627c0.81-0.385,1.484-0.851,2.022-1.399
		c0.538-0.547,0.953-1.156,1.246-1.825c0.293-0.669,0.469-1.378,0.527-2.13c0.058-0.752,0.017-1.534-0.124-2.346l-7.027-14.806
		l2.371-1.126l10.233,21.561l-2.331,1.107l-1.667-3.409c-0.023,1.46-0.374,2.769-1.053,3.93c-0.678,1.161-1.748,2.087-3.21,2.782
		c-0.292,0.138-0.603,0.253-0.934,0.345c-0.331,0.092-0.585,0.139-0.763,0.143L343.846,464.014z"/>
	<path d="M337.226,475.674l-2.209-5.697l-4.607,1.786l-0.782-2.015l4.607-1.787l-5.75-14.827c-0.303-0.782-0.625-1.378-0.966-1.789
		c-0.341-0.413-0.697-0.7-1.068-0.864c-0.371-0.163-0.749-0.222-1.133-0.175c-0.384,0.046-0.768,0.144-1.152,0.293
		c-0.37,0.144-0.717,0.305-1.042,0.486c-0.324,0.181-0.615,0.345-0.874,0.493l-0.885-1.976c0.259-0.226,0.62-0.465,1.083-0.716
		c0.463-0.25,0.934-0.468,1.414-0.654c0.699-0.271,1.383-0.43,2.051-0.476c0.668-0.046,1.303,0.075,1.903,0.362
		c0.6,0.287,1.166,0.758,1.695,1.413c0.53,0.654,1.01,1.536,1.441,2.647l5.75,14.827l4.093-1.587l0.782,2.016l-4.093,1.587
		l2.209,5.697L337.226,475.674z"/>
	<path d="M300.633,459.715l-2.067,21.147l-2.766,0.669l3.326-29.28c0.073-0.577,0.183-1.232,0.332-1.964
		c0.149-0.732,0.401-1.443,0.756-2.133c0.355-0.691,0.854-1.322,1.495-1.892c0.642-0.571,1.491-0.984,2.549-1.24
		c0.143-0.034,0.31-0.063,0.501-0.086c0.191-0.024,0.383-0.044,0.575-0.06c0.193-0.016,0.376-0.026,0.549-0.031
		c0.173-0.003,0.313-0.003,0.42,0.001l0.534,2.118c-0.178,0.012-0.417,0.041-0.718,0.083c-0.299,0.042-0.514,0.078-0.643,0.11
		c-0.686,0.165-1.272,0.402-1.758,0.708c-0.486,0.307-0.883,0.682-1.192,1.127c-0.308,0.446-0.549,0.968-0.722,1.57
		c-0.172,0.601-0.297,1.274-0.375,2.019l-0.375,3.335l14.301,20.896l-2.809,0.679L300.633,459.715z"/>
	<path d="M290.342,470.813c0.227,1.721,0.185,3.343-0.125,4.867c-0.31,1.524-0.855,2.874-1.634,4.053
		c-0.779,1.179-1.778,2.151-2.996,2.921c-1.218,0.769-2.622,1.259-4.211,1.468c-1.618,0.214-3.119,0.107-4.503-0.318
		c-1.383-0.425-2.605-1.106-3.663-2.042c-1.058-0.935-1.931-2.099-2.619-3.492c-0.688-1.392-1.146-2.949-1.373-4.669l-0.095-0.722
		c-0.227-1.719-0.189-3.341,0.114-4.865s0.844-2.874,1.623-4.052c0.779-1.179,1.778-2.148,2.998-2.911
		c1.22-0.761,2.631-1.248,4.235-1.459c1.604-0.213,3.093-0.109,4.469,0.311c1.376,0.419,2.596,1.095,3.661,2.03
		c1.066,0.934,1.946,2.097,2.641,3.49c0.695,1.391,1.157,2.947,1.384,4.667L290.342,470.813z M287.623,470.438
		c-0.171-1.297-0.509-2.51-1.014-3.637c-0.505-1.128-1.151-2.088-1.938-2.881c-0.787-0.794-1.711-1.388-2.772-1.782
		c-1.06-0.394-2.232-0.507-3.515-0.337c-1.283,0.17-2.382,0.581-3.297,1.236c-0.915,0.655-1.649,1.467-2.204,2.438
		c-0.554,0.971-0.929,2.066-1.124,3.286c-0.195,1.219-0.207,2.478-0.036,3.776l0.095,0.722c0.167,1.268,0.504,2.466,1.008,3.594
		c0.505,1.127,1.152,2.09,1.939,2.891c0.788,0.801,1.717,1.402,2.786,1.802c1.069,0.4,2.245,0.516,3.528,0.346
		c1.268-0.167,2.359-0.581,3.273-1.244c0.914-0.662,1.648-1.482,2.201-2.459c0.553-0.978,0.927-2.077,1.122-3.296
		c0.195-1.221,0.209-2.464,0.041-3.733L287.623,470.438z"/>
	<path d="M247.699,464.961c0.73-1.102,1.712-1.968,2.943-2.601c1.232-0.632,2.767-0.965,4.604-0.998
		c1.176-0.02,2.245,0.127,3.207,0.44c0.962,0.313,1.794,0.825,2.498,1.533c0.704,0.708,1.253,1.629,1.648,2.762
		c0.395,1.132,0.607,2.515,0.636,4.147l0.271,15.283l-2.625,0.048l-0.271-15.329c-0.023-1.279-0.188-2.343-0.498-3.19
		c-0.309-0.847-0.718-1.525-1.227-2.03c-0.509-0.506-1.1-0.862-1.773-1.071c-0.673-0.208-1.384-0.307-2.134-0.293
		c-1.059,0.019-1.99,0.153-2.795,0.403c-0.804,0.249-1.497,0.593-2.078,1.029c-0.58,0.437-1.057,0.946-1.429,1.525
		c-0.372,0.58-0.662,1.218-0.871,1.913l0.306,17.268l-2.646,0.048l-0.423-23.863l2.558-0.045L247.699,464.961z"/>
	<path d="M226.357,482.369c0.55,0.144,1.141,0.238,1.771,0.283c0.895,0.064,1.711-0.009,2.449-0.221
		c0.738-0.213,1.399-0.537,1.983-0.974c0.585-0.438,1.087-0.968,1.508-1.594c0.421-0.627,0.77-1.327,1.047-2.103l1.18-16.347
		l2.618,0.189l-1.718,23.804l-2.574-0.186l0.229-3.787c-0.74,1.258-1.69,2.225-2.852,2.901c-1.162,0.675-2.549,0.955-4.163,0.838
		c-0.322-0.024-0.65-0.077-0.984-0.16c-0.333-0.083-0.577-0.167-0.734-0.252L226.357,482.369z"/>
	<path d="M189.012,463.658c0.534-1.553,1.232-2.895,2.093-4.026c0.861-1.131,1.875-2.024,3.042-2.679
		c1.167-0.654,2.481-1.06,3.942-1.217c1.461-0.157,3.052-0.041,4.773,0.351c1.778,0.405,3.314,1.11,4.609,2.113
		c1.295,1.003,2.317,2.243,3.067,3.718c0.75,1.475,1.207,3.144,1.371,5.007c0.164,1.862,0.007,3.847-0.473,5.954l-0.896,3.936
		c-0.48,2.107-1.198,3.969-2.153,5.583c-0.956,1.615-2.094,2.921-3.414,3.917c-1.32,0.997-2.796,1.667-4.428,2.011
		c-1.631,0.345-3.365,0.309-5.201-0.109c-1.663-0.379-3.109-0.949-4.338-1.711c-1.229-0.764-2.22-1.693-2.973-2.793
		c-0.753-1.098-1.275-2.348-1.567-3.75c-0.292-1.4-0.334-2.923-0.126-4.564l2.667,0.607c-0.129,1.297-0.1,2.492,0.089,3.584
		c0.189,1.09,0.562,2.054,1.118,2.89c0.557,0.835,1.299,1.547,2.228,2.136c0.93,0.588,2.068,1.036,3.416,1.343
		c1.463,0.334,2.832,0.347,4.108,0.042c1.276-0.305,2.433-0.882,3.471-1.732c1.038-0.85,1.934-1.955,2.689-3.313
		c0.754-1.36,1.334-2.927,1.739-4.706l0.906-3.978c0.392-1.721,0.553-3.355,0.482-4.901c-0.07-1.547-0.372-2.935-0.907-4.165
		c-0.534-1.231-1.301-2.269-2.3-3.114c-0.999-0.846-2.23-1.435-3.692-1.768c-2.767-0.63-5.004-0.442-6.712,0.564
		c-1.707,1.007-3.027,2.799-3.961,5.376L189.012,463.658z"/>
	<path d="M183.625,464.337c-0.594,1.63-1.381,3.05-2.361,4.258c-0.98,1.208-2.088,2.154-3.323,2.839
		c-1.235,0.684-2.571,1.086-4.007,1.205c-1.436,0.118-2.907-0.097-4.413-0.646c-1.534-0.559-2.815-1.346-3.846-2.363
		c-1.03-1.017-1.798-2.185-2.304-3.504c-0.506-1.319-0.741-2.754-0.708-4.308c0.034-1.552,0.347-3.145,0.941-4.775l0.249-0.683
		c0.594-1.631,1.378-3.052,2.351-4.262c0.973-1.21,2.078-2.158,3.313-2.843c1.236-0.684,2.57-1.083,4.003-1.195
		c1.434-0.111,2.91,0.11,4.43,0.664c1.52,0.553,2.793,1.334,3.819,2.342s1.795,2.172,2.307,3.493
		c0.513,1.321,0.755,2.76,0.729,4.315s-0.337,3.148-0.931,4.778L183.625,464.337z M181.388,462.747
		c0.448-1.23,0.709-2.461,0.782-3.693c0.074-1.234-0.055-2.383-0.386-3.451c-0.331-1.068-0.876-2.021-1.634-2.861
		c-0.758-0.839-1.745-1.481-2.961-1.924c-1.216-0.442-2.381-0.586-3.495-0.428c-1.114,0.157-2.14,0.538-3.081,1.142
		c-0.94,0.605-1.778,1.403-2.515,2.395c-0.737,0.991-1.329,2.102-1.777,3.331l-0.249,0.684c-0.438,1.201-0.694,2.42-0.767,3.653
		c-0.074,1.233,0.054,2.387,0.382,3.461c0.329,1.073,0.874,2.035,1.637,2.884c0.763,0.85,1.752,1.495,2.968,1.939
		c1.202,0.438,2.361,0.573,3.478,0.409c1.116-0.165,2.146-0.553,3.089-1.164c0.943-0.611,1.782-1.413,2.519-2.404
		c0.737-0.992,1.324-2.088,1.762-3.291L181.388,462.747z"/>
	<path d="M148.144,442.65c-0.215,0.434-0.355,0.907-0.419,1.417c-0.064,0.51,0.016,1.062,0.238,1.656
		c0.223,0.594,0.623,1.244,1.201,1.949c0.578,0.705,1.398,1.475,2.46,2.313c1.062,0.837,1.976,1.652,2.742,2.441
		c0.766,0.788,1.353,1.576,1.76,2.361c0.408,0.784,0.616,1.58,0.626,2.389c0.01,0.809-0.201,1.648-0.631,2.518
		c-0.391,0.791-0.938,1.456-1.64,1.994c-0.701,0.538-1.509,0.909-2.422,1.114c-0.913,0.204-1.911,0.231-2.994,0.08
		c-1.082-0.15-2.203-0.512-3.363-1.086c-1.239-0.614-2.269-1.326-3.091-2.135c-0.822-0.809-1.43-1.667-1.825-2.577
		s-0.578-1.842-0.549-2.795c0.029-0.954,0.269-1.885,0.719-2.794l2.372,1.174c-0.274,0.554-0.419,1.155-0.437,1.802
		c-0.017,0.648,0.109,1.288,0.378,1.923c0.269,0.633,0.687,1.247,1.255,1.839c0.568,0.593,1.293,1.109,2.176,1.545
		c0.922,0.457,1.765,0.734,2.528,0.834c0.764,0.098,1.441,0.074,2.032-0.077c0.591-0.15,1.092-0.399,1.502-0.745
		c0.41-0.347,0.725-0.744,0.947-1.192c0.235-0.475,0.376-0.942,0.424-1.403c0.048-0.46-0.053-0.961-0.302-1.503
		c-0.249-0.542-0.675-1.138-1.28-1.791c-0.604-0.652-1.437-1.413-2.5-2.284c-1.141-0.942-2.088-1.83-2.842-2.662
		c-0.753-0.833-1.31-1.655-1.672-2.465c-0.361-0.811-0.529-1.616-0.503-2.415s0.252-1.627,0.676-2.484
		c0.437-0.882,1.022-1.598,1.753-2.147c0.731-0.549,1.568-0.914,2.511-1.095c0.943-0.181,1.974-0.175,3.093,0.018
		c1.119,0.193,2.278,0.586,3.477,1.18c1.357,0.672,2.47,1.441,3.338,2.305c0.868,0.864,1.511,1.769,1.929,2.715
		c0.418,0.946,0.618,1.894,0.598,2.844c-0.019,0.95-0.235,1.84-0.646,2.671l-2.372-1.174c0.365-0.87,0.495-1.679,0.39-2.429
		c-0.105-0.749-0.357-1.432-0.758-2.049c-0.4-0.616-0.91-1.169-1.53-1.656c-0.62-0.488-1.266-0.898-1.938-1.231
		c-0.896-0.443-1.739-0.73-2.529-0.859c-0.789-0.128-1.506-0.13-2.15-0.007c-0.644,0.124-1.199,0.359-1.665,0.702
		C148.748,441.727,148.392,442.149,148.144,442.65z"/>
	<path d="M139.943,433.632l-13.383-8.511l1.231-1.935l15.69,9.978l-17.234,27.101l-2.308-1.467L139.943,433.632z"/>
	<path d="M106.381,445.344c-0.3,0.4-0.683,0.641-1.149,0.724c-0.466,0.083-0.922-0.044-1.37-0.379
		c-0.447-0.336-0.699-0.741-0.757-1.216c-0.057-0.475,0.064-0.913,0.364-1.312c0.3-0.4,0.684-0.636,1.152-0.708
		c0.468-0.072,0.925,0.06,1.372,0.395c0.447,0.336,0.699,0.735,0.754,1.2C106.804,444.512,106.682,444.945,106.381,445.344z
		 M122.356,418.862l2.118,1.588l-14.32,19.093l-2.118-1.588L122.356,418.862z"/>
	<path d="M94.937,411.006c1.188-1.345,2.425-2.44,3.711-3.285c1.287-0.846,2.575-1.411,3.864-1.693
		c1.29-0.284,2.556-0.274,3.799,0.029c1.243,0.303,2.405,0.931,3.485,1.885c1.312,1.159,2.215,2.397,2.708,3.716
		c0.494,1.319,0.658,2.671,0.494,4.055l2.243-2.373l1.852,1.635l-22.426,25.397l-1.967-1.737l8.921-10.103
		c-1.413,0.4-2.803,0.452-4.171,0.157c-1.367-0.295-2.702-1.017-4.002-2.165c-1.091-0.964-1.871-2.035-2.341-3.215
		c-0.469-1.18-0.648-2.426-0.537-3.741s0.509-2.665,1.194-4.052c0.685-1.386,1.64-2.774,2.867-4.163L94.937,411.006z
		 M96.614,413.105c-0.915,1.036-1.672,2.094-2.272,3.173c-0.6,1.079-0.979,2.137-1.139,3.173c-0.159,1.036-0.077,2.036,0.249,3
		c0.325,0.965,0.951,1.856,1.877,2.673c0.75,0.663,1.501,1.145,2.254,1.447c0.754,0.302,1.49,0.467,2.211,0.495
		c0.721,0.028,1.419-0.052,2.095-0.24c0.676-0.188,1.312-0.441,1.906-0.759l7.125-8.069c0.209-0.659,0.339-1.334,0.39-2.025
		c0.051-0.691-0.005-1.378-0.167-2.06c-0.162-0.683-0.446-1.355-0.852-2.018c-0.406-0.662-0.956-1.3-1.65-1.913
		c-0.893-0.788-1.832-1.285-2.819-1.49c-0.986-0.205-1.987-0.165-3.001,0.117c-1.014,0.282-2.019,0.782-3.017,1.5
		c-0.997,0.718-1.958,1.601-2.883,2.648L96.614,413.105z"/>
	<path d="M68.887,411.055c-0.376,0.329-0.799,0.488-1.267,0.477c-0.468-0.011-0.886-0.227-1.254-0.648
		c-0.377-0.432-0.542-0.885-0.494-1.355c0.048-0.471,0.26-0.871,0.637-1.199c0.377-0.329,0.799-0.483,1.266-0.462
		c0.468,0.022,0.89,0.248,1.267,0.68c0.368,0.422,0.528,0.862,0.481,1.323C69.476,410.332,69.263,410.727,68.887,411.055z
		 M72.058,404.188l20.126-17.563c1.662-1.45,3.279-2.158,4.85-2.124c1.571,0.034,3.034,0.827,4.388,2.378
		c0.242,0.276,0.47,0.595,0.685,0.954c0.215,0.359,0.389,0.714,0.521,1.067l-1.674,1.403c-0.109-0.236-0.262-0.514-0.46-0.829
		c-0.198-0.316-0.408-0.601-0.63-0.855c-0.831-0.952-1.747-1.442-2.745-1.468c-0.999-0.026-2.069,0.458-3.21,1.454l-20.126,17.564
		L72.058,404.188z"/>
	<path d="M76.497,391.856c-1.395,1.032-2.835,1.78-4.319,2.248c-1.484,0.466-2.93,0.644-4.338,0.533
		c-1.408-0.111-2.743-0.514-4.007-1.207c-1.263-0.695-2.371-1.685-3.324-2.975c-0.971-1.312-1.605-2.676-1.902-4.094
		c-0.297-1.416-0.293-2.814,0.013-4.193c0.307-1.379,0.903-2.706,1.788-3.982c0.885-1.277,2.025-2.431,3.42-3.462l0.585-0.432
		c1.395-1.032,2.833-1.784,4.312-2.257c1.48-0.472,2.924-0.653,4.332-0.542c1.408,0.111,2.741,0.516,3.998,1.214
		c1.257,0.699,2.366,1.698,3.328,2.999c0.962,1.301,1.592,2.654,1.892,4.061c0.299,1.406,0.298,2.802-0.004,4.186
		c-0.302,1.385-0.893,2.718-1.774,4c-0.881,1.283-2.019,2.44-3.414,3.472L76.497,391.856z M75.509,389.295
		c1.053-0.778,1.95-1.661,2.691-2.648c0.742-0.988,1.27-2.018,1.583-3.09c0.314-1.073,0.385-2.168,0.217-3.288
		c-0.169-1.119-0.638-2.198-1.407-3.239c-0.769-1.041-1.662-1.802-2.678-2.286c-1.016-0.483-2.082-0.732-3.2-0.748
		c-1.117-0.015-2.257,0.188-3.419,0.609c-1.161,0.42-2.269,1.018-3.321,1.796l-0.585,0.433c-1.029,0.76-1.914,1.635-2.656,2.622
		c-0.742,0.988-1.272,2.02-1.592,3.097c-0.319,1.078-0.394,2.181-0.228,3.31c0.168,1.129,0.636,2.214,1.405,3.254
		c0.761,1.028,1.652,1.783,2.674,2.261c1.022,0.48,2.095,0.724,3.218,0.734c1.124,0.011,2.266-0.193,3.428-0.614
		c1.162-0.42,2.257-1.01,3.285-1.77L75.509,389.295z"/>
	<path d="M61,351.746c1.318,0.106,2.551,0.546,3.7,1.318c1.149,0.773,2.182,1.955,3.1,3.547c0.587,1.02,0.976,2.026,1.166,3.019
		c0.191,0.994,0.146,1.969-0.133,2.929c-0.279,0.958-0.819,1.885-1.62,2.778c-0.8,0.894-1.908,1.748-3.322,2.563l-13.246,7.63
		l-1.31-2.275l13.284-7.652c1.109-0.638,1.959-1.297,2.551-1.978c0.592-0.681,0.987-1.365,1.183-2.056
		c0.197-0.69,0.223-1.379,0.08-2.07c-0.143-0.689-0.402-1.36-0.776-2.009c-0.529-0.917-1.096-1.668-1.704-2.251
		c-0.607-0.584-1.243-1.024-1.906-1.321c-0.663-0.296-1.338-0.467-2.026-0.512c-0.688-0.045-1.386,0.009-2.095,0.163l-14.966,8.621
		l-1.321-2.293l20.681-11.914l1.277,2.218L61,351.746z"/>
	<path d="M35.435,341.409c0.14,0.551,0.342,1.113,0.606,1.688c0.375,0.814,0.833,1.494,1.374,2.038
		c0.542,0.544,1.145,0.966,1.809,1.268c0.665,0.301,1.373,0.485,2.124,0.553c0.751,0.067,1.534,0.035,2.347-0.096l14.89-6.847
		l1.097,2.385l-21.684,9.971l-1.078-2.345l3.429-1.626c-1.459-0.041-2.765-0.407-3.917-1.099c-1.152-0.692-2.066-1.774-2.742-3.243
		c-0.135-0.294-0.246-0.606-0.335-0.939c-0.088-0.331-0.132-0.586-0.133-0.764L35.435,341.409z"/>
	<path d="M30.344,334.781l3.819-1.441c-0.775-0.163-1.515-0.404-2.221-0.725c-0.706-0.32-1.356-0.726-1.95-1.218
		c-0.594-0.491-1.12-1.062-1.575-1.713c-0.455-0.65-0.825-1.378-1.109-2.182c-0.396-1.123-0.598-2.182-0.607-3.177
		c-0.008-0.994,0.212-1.918,0.66-2.77s1.138-1.626,2.07-2.321c0.932-0.696,2.14-1.305,3.624-1.828l14.644-5.168l0.874,2.476
		l-14.665,5.174c-1.165,0.412-2.091,0.879-2.78,1.403c-0.688,0.524-1.187,1.097-1.498,1.722c-0.31,0.623-0.449,1.301-0.418,2.03
		c0.032,0.73,0.189,1.497,0.473,2.301c0.313,0.887,0.746,1.639,1.299,2.254c0.553,0.616,1.176,1.114,1.871,1.492
		c0.695,0.379,1.436,0.655,2.223,0.829c0.787,0.175,1.562,0.26,2.324,0.257l15.413-5.44l0.874,2.476l-22.506,7.942L30.344,334.781z"
		/>
	<path d="M44.403,297.391c0.353,1.518,0.395,2.981,0.126,4.387c-0.269,1.407-0.801,2.689-1.596,3.848
		c-0.795,1.158-1.827,2.157-3.096,2.996c-1.269,0.838-2.734,1.451-4.396,1.838l-0.924,0.215c-1.79,0.416-3.475,0.525-5.054,0.327
		c-1.579-0.199-2.987-0.638-4.224-1.317c-1.237-0.678-2.275-1.55-3.111-2.616c-0.837-1.066-1.41-2.265-1.72-3.596
		c-0.343-1.475-0.383-2.847-0.12-4.117c0.263-1.268,0.777-2.404,1.54-3.404c0.764-1.001,1.751-1.853,2.961-2.558
		c1.21-0.705,2.588-1.236,4.135-1.596l1.568-0.365l3.859,16.585l0.494-0.114c1.275-0.298,2.429-0.769,3.464-1.417
		c1.035-0.649,1.885-1.421,2.553-2.316c0.667-0.895,1.128-1.886,1.381-2.972c0.253-1.085,0.242-2.222-0.035-3.41
		c-0.32-1.375-0.853-2.532-1.599-3.467c-0.746-0.937-1.771-1.706-3.074-2.309l0.85-1.896c0.648,0.257,1.283,0.581,1.902,0.973
		c0.62,0.391,1.194,0.881,1.723,1.467c0.529,0.587,0.999,1.278,1.411,2.072C43.833,295.425,44.16,296.346,44.403,297.391z
		 M22.6,302.963c0.227,0.974,0.623,1.833,1.188,2.577c0.566,0.744,1.267,1.355,2.102,1.833c0.836,0.477,1.785,0.808,2.846,0.991
		c1.062,0.183,2.197,0.209,3.404,0.079L28.897,294.5l-0.279,0.064c-0.967,0.256-1.872,0.632-2.715,1.13
		c-0.843,0.499-1.551,1.105-2.125,1.82c-0.573,0.715-0.976,1.529-1.209,2.443C22.336,300.873,22.346,301.875,22.6,302.963z"/>
	<path d="M36.631,277.706l-20.796-4.363l-0.362-2.822l28.742,6.503c0.566,0.136,1.204,0.317,1.916,0.544
		c0.711,0.227,1.39,0.555,2.038,0.984s1.221,0.992,1.718,1.692s0.815,1.589,0.954,2.668c0.019,0.146,0.029,0.316,0.032,0.508
		c0.002,0.192,0.001,0.386-0.004,0.578c-0.005,0.193-0.015,0.377-0.03,0.549c-0.015,0.173-0.031,0.312-0.047,0.417l-2.163,0.3
		c0.007-0.179,0.005-0.42-0.004-0.722c-0.009-0.303-0.022-0.52-0.039-0.652c-0.09-0.7-0.26-1.308-0.512-1.825
		c-0.252-0.516-0.582-0.952-0.99-1.308c-0.409-0.355-0.903-0.652-1.482-0.889c-0.579-0.236-1.234-0.434-1.966-0.593l-3.274-0.736
		L18.03,290.475l-0.367-2.866L36.631,277.706z"/>
	<path d="M22.924,253.556c-0.514,0.009-0.951-0.146-1.309-0.464c-0.358-0.318-0.542-0.77-0.551-1.359s0.159-1.054,0.507-1.398
		c0.347-0.344,0.779-0.52,1.293-0.528c0.515-0.009,0.948,0.154,1.299,0.486s0.531,0.793,0.541,1.381s-0.156,1.046-0.496,1.376
		C23.867,253.379,23.439,253.548,22.924,253.556z"/>
</g>
</svg>
